<?xml version="1.0" encoding="utf-8"?>
<!-- Generator: Adobe Illustrator 19.2.1, SVG Export Plug-In . SVG Version: 6.00 Build 0)  -->
<svg version="1.1" id="Layer_1" xmlns="http://www.w3.org/2000/svg" xmlns:xlink="http://www.w3.org/1999/xlink" x="0px" y="0px"
	 viewBox="0 0 246 38" style="enable-background:new 0 0 246 38;" xml:space="preserve">
<style type="text/css">
	.st0{fill:#FFFFFF;}
	.st1{fill:#80D9CD;}
</style>
<title>Group 17</title>
<desc>Created with Sketch.</desc>
<g id="Symbols">
	<g id="Header" transform="translate(-29.000000, -23.000000)">
		<g id="Group-17" transform="translate(29.000000, 23.000000)">
			<path id="Downtown" class="st0" d="M0.3,22.5c0,0.2,0.2,0.5,0.5,0.5h5.9c4.8,0,8.8-3.9,8.8-8.8c0-4.8-3.9-8.7-8.8-8.7H0.7
				C0.5,5.5,0.3,5.7,0.3,6V22.5z M3.5,20V8.5h2.8c3.3,0,5.6,2.5,5.6,5.7c0,3.3-2.4,5.7-5.6,5.7H3.5z M17.5,14.3c0,5,4,9,9,9s9-4,9-9
				s-4-9-9-9S17.5,9.3,17.5,14.3L17.5,14.3z M20.7,14.3c0-3.1,2.6-5.8,5.7-5.8s5.8,2.6,5.8,5.8S29.6,20,26.5,20S20.7,17.4,20.7,14.3
				L20.7,14.3z M41.8,22.9c0,0.2,0.2,0.4,0.4,0.4h0.4c0.2,0,0.3-0.1,0.4-0.3l4.4-11.3h0.1L52.1,23c0,0.1,0.2,0.3,0.4,0.3h0.4
				c0.2,0,0.4-0.1,0.4-0.4l4.7-16.8c0.1-0.3-0.1-0.6-0.5-0.6h-2.3c-0.2,0-0.4,0.2-0.5,0.3l-2.5,10h-0.1l-4-10.3
				c0-0.2-0.2-0.3-0.4-0.3h-0.5c-0.2,0-0.4,0.1-0.4,0.3l-4,10.3h-0.1l-2.6-10c0-0.2-0.2-0.3-0.5-0.3h-2.3c-0.3,0-0.5,0.2-0.5,0.6
				L41.8,22.9z M61,22.5c0,0.2,0.2,0.5,0.5,0.5h2.3c0.3,0,0.5-0.2,0.5-0.5V11.8h0l10.4,11.5h0.6c0.2,0,0.5-0.2,0.5-0.5V6
				c0-0.2-0.2-0.5-0.5-0.5H73c-0.3,0-0.5,0.2-0.5,0.5v10.3h0l-10.4-11h-0.6c-0.2,0-0.5,0.2-0.5,0.4V22.5z M82.7,22.5
				c0,0.2,0.2,0.5,0.5,0.5h2.3c0.2,0,0.5-0.2,0.5-0.5v-14h3.8c0.3,0,0.5-0.2,0.5-0.5V6c0-0.2-0.2-0.5-0.5-0.5H78.8
				c-0.3,0-0.5,0.2-0.5,0.5v2c0,0.2,0.2,0.5,0.5,0.5h3.8V22.5z M91.4,14.3c0,5,4,9,9,9s9-4,9-9s-4-9-9-9S91.4,9.3,91.4,14.3
				L91.4,14.3z M94.7,14.3c0-3.1,2.6-5.8,5.7-5.8s5.8,2.6,5.8,5.8s-2.6,5.7-5.8,5.7S94.7,17.4,94.7,14.3L94.7,14.3z M115.7,22.9
				c0.1,0.2,0.2,0.4,0.5,0.4h0.4c0.2,0,0.4-0.1,0.4-0.3l4.4-11.3h0.1L126,23c0,0.1,0.2,0.3,0.4,0.3h0.4c0.2,0,0.4-0.1,0.5-0.4
				L132,6.1c0.1-0.3-0.1-0.6-0.4-0.6h-2.3c-0.2,0-0.4,0.2-0.4,0.3l-2.5,10h-0.1l-4-10.3c-0.1-0.2-0.2-0.3-0.4-0.3h-0.4
				c-0.2,0-0.4,0.1-0.4,0.3l-4,10.3h-0.1l-2.6-10c0-0.2-0.2-0.3-0.4-0.3h-2.3c-0.3,0-0.5,0.2-0.4,0.6L115.7,22.9z M134.9,22.5
				c0,0.2,0.2,0.5,0.5,0.5h2.3c0.3,0,0.5-0.2,0.5-0.5V11.8h0l10.4,11.5h0.6c0.2,0,0.5-0.2,0.5-0.5V6c0-0.2-0.2-0.5-0.5-0.5h-2.3
				c-0.3,0-0.5,0.2-0.5,0.5v10.3h0l-10.4-11h-0.6c-0.2,0-0.5,0.2-0.5,0.4V22.5z"/>
			<path id="Greeley" class="st1" d="M171.2,16.9c1-0.1,1.9-0.1,2.6-0.1c0.5,0.1,0.6-0.2,0.4-0.6c-0.5-1.1-1.5-1.9-3.4-1.9
				c-2.3,0-5.1,1-8,1c-0.4,0-0.6,0.2-0.4,0.6c0.6,1.2,1.7,2,3.6,1.8c0.9-0.1,2.1-0.3,3.3-0.5c-2.3,4.5-6.6,7.3-8.6,5.4
				c-1.5-1.4-1.6-7,1.8-12.2c3.5-5.4,9.5-8.5,10.7-7.3c0.8,0.8-0.6,2.9-1,4.7s0.1,2.9,1,3.5c0.4,0.4,0.7,0.1,0.8-0.2
				c0.4-1.1,1-2.6,1.4-3.6c0.5-1.2,0.6-2.2,0.3-3.2c-0.3-1-0.9-1.9-1.9-2.6c-1.3-0.9-2.9-0.9-5-0.2c-4.2,1.4-11.7,8.4-11.6,16.4
				c0,3,1.1,4.7,2.5,5.7c2,1.6,4.4,1.3,6.2,0.7C167.7,23.7,172.2,20.4,171.2,16.9L171.2,16.9z M180.6,12.3c0.9-2.3,1.2-4.5,0.1-4.4
				c-1.4,0-4.6,4.4-2.5,5.8c-1.4,2-3.8,5.4-4.7,7.1c-1,1.9-1,3.6,0.1,4.7c0.3,0.3,0.6,0.1,0.6-0.2c0.7-3.4,4.3-8.6,5.7-11.2
				c1.1,0,2.7-0.3,4.3-1.4c-1.5,1.7-3.6,4.3-4.4,6.8c-0.9,2.8,0.1,5.2,2.8,5.3c2,0.1,4.1-1.5,5-3.6c0.4-1,0.4-1.9,0.2-2.3
				c-0.1-0.3-0.4-0.3-0.5,0c-1.2,2.7-3,5-4.4,4.9c-1.1,0-1.5-1.5-0.9-3.4c0.6-1.9,2.4-4.3,4.1-6.1c1.1-1.2,0.2-2.8-0.5-3.6
				c-0.3-0.3-0.6-0.2-1,0.1C183,11.6,181.8,12.2,180.6,12.3L180.6,12.3z M190.1,17.7c2.6,2.1,5.1,1.1,6.9-1.1c1.6-1.9,1.8-4.1,1.2-5
				c-0.6-0.8-1.3-1.4-2.2-1.9c-1.8-1.1-5.6,0.9-8,5.6s-0.8,9.4,3.9,9.3c2.8,0,5.7-1.7,7.3-4c0.7-1,0.8-2,0.6-2.3
				c-0.1-0.3-0.4-0.3-0.6,0c-1.6,2.4-4.3,5.4-7.4,5.3C189.8,23.4,188.9,21.1,190.1,17.7L190.1,17.7z M190.4,16.9
				c0.1-0.2,0.2-0.4,0.3-0.6c1.7-3.5,4.8-5.7,5.6-5.1c0.5,0.4-0.3,2.3-1.5,3.9C193.8,16.4,192.3,18,190.4,16.9L190.4,16.9z
				 M202,17.7c2.6,2.1,5.1,1.1,6.9-1.1c1.6-1.9,1.9-4.1,1.2-5c-0.6-0.8-1.3-1.4-2.2-1.9c-1.9-1.1-5.6,0.9-8,5.6s-0.8,9.4,3.9,9.3
				c2.8,0,5.7-1.7,7.3-4c0.7-1,0.8-2,0.6-2.3c-0.1-0.3-0.4-0.3-0.6,0c-1.6,2.4-4.3,5.4-7.4,5.3C201.7,23.4,200.8,21.1,202,17.7
				L202,17.7z M202.3,16.9c0.1-0.2,0.2-0.4,0.3-0.6c1.7-3.5,4.8-5.7,5.6-5.1c0.5,0.4-0.3,2.3-1.5,3.9
				C205.6,16.4,204.1,18,202.3,16.9L202.3,16.9z M214,16.6c3.3-2.1,7.4-6.6,8.6-11.1c0.4-1.7,0.2-3.1-0.9-4.1
				c-0.5-0.5-1-0.4-1.6,0.2c-3.8,3.9-8,10.6-9.4,17.1c-0.9,4,0.5,5.8,3.1,5.8c3,0.1,5.7-3,6.2-4.1c0.4-0.9,0.6-1.7,0.4-2.3
				c-0.1-0.5-0.6-0.5-0.8,0c-1.4,2.8-4,5.5-5.8,5.4C212.1,23.3,212.5,20.2,214,16.6L214,16.6z M214.7,15c0.3-0.6,0.6-1.2,0.9-1.8
				c2.6-4.7,5.3-8.8,5.8-8.5S219.8,10.9,214.7,15L214.7,15z M222.3,17.7c2.6,2.1,5.1,1.1,6.9-1.1c1.6-1.9,1.8-4.1,1.2-5
				c-0.6-0.8-1.3-1.4-2.2-1.9c-1.8-1.1-5.6,0.9-8,5.6s-0.8,9.4,3.9,9.3c2.8,0,5.7-1.7,7.3-4c0.7-1,0.8-2,0.6-2.3
				c-0.1-0.3-0.4-0.3-0.6,0c-1.6,2.4-4.3,5.4-7.4,5.3C222,23.4,221.1,21.1,222.3,17.7L222.3,17.7z M222.6,16.9
				c0.1-0.2,0.2-0.4,0.3-0.6c1.7-3.5,4.8-5.7,5.6-5.1c0.5,0.4-0.3,2.3-1.5,3.9C226,16.4,224.4,18,222.6,16.9L222.6,16.9z M245,20.4
				c0.6-1,0.7-1.8,0.7-2.1c-0.1-0.4-0.4-0.3-0.6-0.1c-1.5,2-3.7,4.1-6.5,5.7c1.6-3.6,3.8-8,4.9-10.2c1-1.9,0.7-3.5,0.1-4.1
				c-0.3-0.3-0.6-0.2-0.9,0.3c-1.3,1.9-2.9,5.2-4.5,8c-1.9,3.2-3.7,5.6-5.2,5.5c-0.9-0.1-0.9-1.4-0.2-3.2c0.7-1.7,1.5-3.3,2.8-5.4
				c1.4-2.2,1.6-3.7,0.7-4.9c-0.3-0.4-0.6-0.4-0.9,0c-2.4,3.3-4.2,7-5,9.4c-0.9,2.4-0.8,5.1,1.9,5.4c1.5,0.1,2.9-0.9,4-2
				c-0.4,0.9-0.8,1.8-1.1,2.7c-3.7,1.4-6.8,3.7-7.9,7c-0.7,2.2,0,3.5,0.7,4.6c0.7,1,1.4,1,2.1,0.8c3.1-1.2,5.7-7.1,7.8-12.1
				C241,24.1,243.6,22.7,245,20.4L245,20.4z M234.6,26.7c-2.3,5.4-5.3,9.5-5.8,8.8C228.1,34.5,229.8,29.4,234.6,26.7L234.6,26.7z"/>
		</g>
	</g>
</g>
</svg>
