<?xml version="1.0" encoding="utf-8"?>
<!-- Generator: Adobe Illustrator 19.2.1, SVG Export Plug-In . SVG Version: 6.00 Build 0)  -->
<svg version="1.1" id="Layer_1" xmlns="http://www.w3.org/2000/svg" xmlns:xlink="http://www.w3.org/1999/xlink" x="0px" y="0px"
	 viewBox="0 0 233 85" style="enable-background:new 0 0 233 85;" xml:space="preserve">
<style type="text/css">
	.st0{fill:#FFFFFF;}
</style>
<title>Explore</title>
<desc>Created with Sketch.</desc>
<g id="Welcome">
	<g id="Desktop-HD-Copy-6" transform="translate(-247.000000, -1116.000000)">
		<g id="Group" transform="translate(-34.000000, 754.000000)">
			<path id="Explore" class="st0" d="M304.8,371.5c-8.4,13-18.4,31.6-23,43.9c-1,2.7-1,4-0.1,5.7c0.7,1.3,1.3,2.8,2.1,3.7
				c1.2,1.5,2.3,1.5,4.2,1c5.6-1.5,16.5-4.1,22.1-4c1.2,0,1.3-0.6,1-1.5c-1.1-3-3.6-4.6-8.5-4.4c-4.1,0.2-10.7,1.6-15.5,3.1
				c2.1-4.7,4.8-10.2,7.7-15.8c5.6-1.4,13.1-2.8,18.5-2.8c1.3,0,1.3-0.6,1-1.5c-1-3.1-3.2-4.7-8.2-4.5c-1.8,0.1-4.4,0.3-7.1,0.8
				c4.9-8.9,9.8-17.6,13.8-23.6c6.1-1,13.1-2.8,20.3-2.7c1.2,0.2,1.4-0.5,1.1-1.3c-1.2-3.3-3.4-5-7.6-4.9c-5.6,0.1-16.6,3-24.9,2.5
				c-1-0.1-1.3,0.3-1.1,1.2C301.2,368.5,302.3,370.5,304.8,371.5L304.8,371.5z M332.2,406c-3.7,3-7,5.7-9.4,8.3c-3.7,4-5.7,7-6,10.4
				c-0.2,1.7,1.5,1.2,2.3,0.3c4-5,8.9-9.6,13.8-13.7c0.2,1.2,0.3,2.3,0.4,2.9c1.2,8.3,4,11.4,9.3,11.4c5,0,10.2-4.6,13.2-10.5
				c1.4-2.7,1.4-5.1,0.9-6.3c-0.3-0.8-1.1-0.7-1.5,0.2c-2.9,6.1-7.2,13.4-10.9,13.2c-1.2-0.1-2.4-1.5-3.2-5.5
				c-0.5-2.6-1-6.7-1.7-10.9c4.7-3.8,8.7-7,10.9-9.5c3.4-3.9,5.4-6.8,5.4-10.1c0-1.6-1-1.5-2-0.2c-4.2,5.4-9.6,10.3-15,14.7
				c-0.4-3.2-0.9-6.2-1.4-8.6c-0.9-4.4-2.2-6.4-5.3-7c-5-0.9-10.8,4.2-12.7,9c-0.7,1.8-1.1,4-0.6,5.4c0.3,0.8,1.2,0.7,1.6-0.2
				c3-6.7,7-10.4,8.2-10.3C329.5,389.1,331.1,398.5,332.2,406L332.2,406z M374.8,423.6c3.8-2.3,7.5-7.1,10.5-13.7
				c3.7-8.2,5.9-17.1,1.1-22.2c-4.3-4.5-10.2-1.7-14.6,2.1c0.1-1.7-0.1-3.2-0.6-4.5c-0.5-1.2-1.4-1.4-2.4-0.1
				c-6.3,8.4-23.1,40.1-26.1,49.8c-1.9,6.1-1.4,8.9,0.1,11c0.6,0.9,1.3,0.7,1.7-0.2c4.8-11.1,9.9-21.3,14.6-29.9
				c0.3,2.5,1.3,4.8,3.4,6.7c3.5,3.2,7.7,4.1,14.1,3.7c7.2-0.5,14-3.8,17.8-10.7c1.7-3.1,1.5-5.7,1.3-6.6c-0.2-1-1.3-1.4-1.9,0
				C390.6,415.8,384.6,423,374.8,423.6L374.8,423.6z M364.7,405.9c1.2-2.1,2.3-3.9,3.4-5.7c4.7-7.7,10.9-12.7,13.3-11.5
				c2.5,1.2,1.4,9.5-2.5,17.5c-4.7,9.6-11.2,16.9-14.4,14.3C361.7,418.2,362.2,412.2,364.7,405.9L364.7,405.9z M402,404
				c8.9-5.8,20.1-17.8,23.2-30.1c1.2-4.7,0.6-8.4-2.3-11c-1.4-1.3-2.8-1.1-4.3,0.5c-10.2,10.6-21.6,28.7-25.3,46.1
				c-2.3,10.8,1.4,15.6,8.3,15.8c8,0.2,15.3-8.1,16.7-11.1c1.1-2.4,1.5-4.6,1-6.2c-0.4-1.4-1.5-1.3-2.2,0
				c-3.9,7.7-10.9,14.9-15.7,14.5C396.9,422.1,398,413.8,402,404L402,404z M403.8,399.7c0.7-1.6,1.5-3.2,2.4-4.8
				c6.9-12.8,14.3-23.9,15.6-23.1C423.1,372.6,417.5,388.6,403.8,399.7L403.8,399.7z M480.8,415.5c1.2-2.6,0.8-5.3,0.3-6.5
				c-0.4-0.9-1.1-0.7-1.5,0.2c-3.2,7.3-8.3,14-12.3,13.7c-3.2-0.2-4.4-4.1-2.5-9.6c1.8-5.3,6.6-12.1,11.3-17.4
				c3-3.4,0.5-8.1-1.3-10.2c-0.8-1-1.7-0.7-3,0.2c-3.8,2.6-7.3,4.3-10.8,4.8c2-5.3,3.8-12.6,0.3-12.5c-4,0.1-13.8,13.3-6.4,16.5
				c-2.1,3.8-5,5.7-7.8,6.2c0-0.6,0.2-1.1,0.2-1.6c0.5-7.3-2.4-7.9-4.8-11c-2.1-2.7-3.7-3.7-6.7-3.4c-6,0.5-12.3,6.1-16.1,13
				c-4.3,7.9-5.8,16.6-1.5,22.5c3.9,5.3,9.1,5.5,12.7,4.3c7.4-2.4,13.6-12.7,15.6-21.2c5.5-0.2,9.6-3.6,12.4-8.1
				c3.2,0,7.6-1,12.1-3.9c-4.2,4.9-10.5,12.3-12.5,19c-2.5,8.2,0.6,14.9,8.3,15.3C472.3,426.1,478.1,421.5,480.8,415.5L480.8,415.5z
				 M440.9,399.3c-1.9-1.6-2.8-4.1-2.5-6.6c0.4-2.9,2.6-3.7,3-0.4C441.6,394,441.5,396.4,440.9,399.3L440.9,399.3z M440,402.2
				c-0.7,2.5-1.9,5.2-3.5,8.2c-5,9.1-11.2,12.7-13.8,10.4c-2.6-2.3-1.2-11.4,3.1-19c2.2-3.8,5-7.1,7.7-9.4
				C433.6,396,436.1,400,440,402.2L440,402.2z M487.7,406.9c7,5.7,13.7,3.1,18.6-2.9c4.2-5.1,5-11.2,3.2-13.6
				c-1.6-2.2-3.4-3.7-5.9-5.2c-5-2.9-15.2,2.3-21.7,15.2s-2.1,25.4,10.6,25.2c7.7-0.1,15.4-4.7,19.6-10.8c1.8-2.6,2.1-5.4,1.7-6.2
				c-0.4-0.9-1.2-0.9-1.7-0.1c-4.3,6.6-11.6,14.6-19.9,14.2C486.9,422.4,484.5,416.1,487.7,406.9L487.7,406.9z M488.6,404.7
				c0.2-0.5,0.5-1.1,0.8-1.7c4.7-9.5,13-15.5,15.1-13.8c1.4,1.1-0.8,6.3-4,10.5C497.6,403.5,493.5,407.8,488.6,404.7L488.6,404.7z"
				/>
		</g>
	</g>
</g>
</svg>
