<?xml version="1.0" encoding="UTF-8" standalone="no"?>
<svg width="55px" height="56px" viewBox="0 0 55 56" version="1.1" xmlns="http://www.w3.org/2000/svg" xmlns:xlink="http://www.w3.org/1999/xlink">
    <!-- Generator: Sketch 3.6.1 (26313) - http://www.bohemiancoding.com/sketch -->
    <title>Group 2</title>
    <desc>Created with Sketch.</desc>
    <defs></defs>
    <g id="Welcome" stroke="none" stroke-width="1" fill="none" fill-rule="evenodd">
        <g id="Desktop-HD-Copy-13" transform="translate(-1039.000000, -2188.000000)">
            <g id="Group-15" transform="translate(0.000000, 2137.000000)">
                <g id="Group-2" transform="translate(1039.000000, 51.016362)">
                    <rect id="Rectangle-54" fill="#D0D0D0" x="6" y="6" width="49" height="49" rx="5"></rect>
                    <path d="M44.1,0 L4.9,0 C2.205,0 0,2.205 0,4.9 L0,44.1 C0,46.795 2.205,49 4.9,49 L44.1,49 C46.795,49 49,46.795 49,44.1 L49,4.9 C49,2.205 46.795,0 44.1,0 L44.1,0 Z M33,8 L33,14.375 L28.75,14.375 C27.475,14.375 26.625,15.225 26.625,16.5 L26.625,20.75 L33,20.75 L33,27.125 L26.625,27.125 L26.625,42 L20.25,42 L20.25,27.125 L16,27.125 L16,20.75 L20.25,20.75 L20.25,15.4375 C20.25,11.4 23.65,8 27.6875,8 L33,8 L33,8 Z" id="Shape" fill="#12669F"></path>
                    <path d="M33,8 L33,14.375 L28.75,14.375 C27.475,14.375 26.625,15.225 26.625,16.5 L26.625,20.75 L33,20.75 L33,27.125 L26.625,27.125 L26.625,42 L20.25,42 L20.25,27.125 L16,27.125 L16,20.75 L20.25,20.75 L20.25,15.4375 C20.25,11.4 23.65,8 27.6875,8 L33,8 L33,8 Z" id="Path" fill="#FFFFFF"></path>
                </g>
            </g>
        </g>
    </g>
</svg>