<?xml version="1.0" encoding="utf-8"?>
<!-- Generator: Adobe Illustrator 19.2.1, SVG Export Plug-In . SVG Version: 6.00 Build 0)  -->
<svg version="1.1" id="Layer_1" xmlns="http://www.w3.org/2000/svg" xmlns:xlink="http://www.w3.org/1999/xlink" x="0px" y="0px"
	 viewBox="0 0 378 294" style="enable-background:new 0 0 378 294;" xml:space="preserve">
<style type="text/css">
	.st0{fill:#80D9CD;}
	.st1{fill:#FFFFFF;}
	.st2{fill:none;stroke:#FFFFFF;stroke-width:4;stroke-linecap:round;}
</style>
<title>Group 9</title>
<desc>Created with Sketch.</desc>
<g id="Welcome">
	<g id="Desktop-HD-Copy-6" transform="translate(-536.000000, -302.000000)">
		<g id="Group-9" transform="translate(536.000000, 302.000000)">
			<path id="Greeley" class="st0" d="M60,204.7c4.1-0.5,8-0.6,11-0.3c2.1,0.3,2.4-0.8,1.6-2.5c-2.1-4.7-6.5-8.2-14.4-8
				c-9.6,0.2-21.6,4.1-33.9,4.3c-1.9,0-2.4,0.9-1.6,2.5c2.4,5,7.3,8.4,15.1,7.6c3.8-0.3,8.8-1.3,13.9-2.2
				c-9.6,19.1-28.1,30.9-36.8,22.9c-6.3-5.8-6.8-29.8,7.9-52.2c15-22.9,40.7-36.5,45.8-31.2c3.5,3.5-2.4,12.3-4.4,20.2
				c-2.1,7.9,0.5,12.5,4.1,15c1.7,1.6,2.8,0.5,3.3-0.8c1.7-4.6,4.3-10.9,6.2-15.1c2.2-5,2.5-9.3,1.1-13.7c-1.3-4.1-3.8-8-8.2-11.2
				c-5.4-3.9-12.5-3.8-21.3-0.9C31.6,144.6-0.3,174.6,0,208.5c0.2,12.9,4.9,20,10.6,24.3c8.7,6.6,18.6,5.4,26.4,3.2
				C44.9,233.7,64.1,219.5,60,204.7L60,204.7z M99.9,185.1c3.9-9.9,5.2-19.1,0.3-18.9c-5.8,0.2-19.6,18.8-10.6,24.6
				c-5.8,8.4-16.4,23.2-20,30.1c-4.3,8-4.3,15.3,0.3,20c1.4,1.4,2.4,0.6,2.7-0.8c3-14.4,18.1-36.8,24.1-47.8c4.7,0,11.5-1.4,18.5-6
				c-6.3,7.3-15.5,18.5-18.9,28.9c-3.9,11.8,0.6,22.2,12,22.7c8.4,0.3,17.5-6.3,21.1-15.5c1.7-4.3,1.6-8,0.8-9.8
				c-0.6-1.3-1.6-1.1-2.2,0.2c-5,11.4-12.6,21.1-18.8,20.8c-4.6-0.2-6.5-6.3-3.9-14.5c2.5-8.2,10.3-18.1,17.4-26.2
				c4.6-5.2,0.8-12.2-2.2-15.5c-1.1-1.3-2.4-0.9-4.3,0.3C110.4,182,105,184.5,99.9,185.1L99.9,185.1z M140.5,208
				c11,9,21.6,4.9,29.4-4.6c6.6-8,7.9-17.7,5-21.5c-2.5-3.5-5.4-5.8-9.3-8.2c-7.9-4.6-24,3.6-34.2,24c-10.3,20.4-3.3,40.1,16.7,39.8
				c12.2-0.2,24.3-7.4,30.9-17c2.8-4.1,3.3-8.5,2.7-9.8c-0.6-1.4-1.9-1.4-2.7-0.2c-6.8,10.4-18.3,23-31.4,22.4
				C139.2,232.5,135.4,222.5,140.5,208L140.5,208z M141.9,204.5c0.3-0.8,0.8-1.7,1.3-2.7c7.4-15,20.5-24.5,23.8-21.8
				c2.2,1.7-1.3,9.9-6.3,16.6C156.1,202.7,149.6,209.4,141.9,204.5L141.9,204.5z M191,208c11,9,21.6,4.9,29.4-4.6
				c6.6-8,7.9-17.7,5-21.5c-2.5-3.5-5.4-5.8-9.3-8.2c-7.9-4.6-24,3.6-34.2,24s-3.3,40.1,16.7,39.8c12.2-0.2,24.3-7.4,30.9-17
				c2.8-4.1,3.3-8.5,2.7-9.8c-0.6-1.4-1.9-1.4-2.7-0.2c-6.8,10.4-18.3,23-31.4,22.4C189.7,232.5,185.9,222.5,191,208L191,208z
				 M192.4,204.5c0.3-0.8,0.8-1.7,1.3-2.7c7.4-15,20.5-24.5,23.8-21.8c2.2,1.7-1.3,9.9-6.3,16.6
				C206.6,202.7,200.1,209.4,192.4,204.5L192.4,204.5z M242.4,203.4c14-9.2,31.7-28.1,36.6-47.5c1.9-7.4,0.9-13.3-3.6-17.4
				c-2.2-2.1-4.4-1.7-6.8,0.8c-16.1,16.7-34.1,45.3-39.9,72.7c-3.6,17,2.2,24.6,13.1,24.9c12.6,0.3,24.1-12.8,26.4-17.5
				c1.7-3.8,2.4-7.3,1.6-9.8c-0.6-2.2-2.4-2.1-3.5,0c-6.2,12.2-17.2,23.5-24.8,22.9C234.4,232,236.1,218.9,242.4,203.4L242.4,203.4z
				 M245.3,196.7c1.1-2.5,2.4-5,3.8-7.6c10.9-20.2,22.6-37.7,24.6-36.5C275.7,153.9,266.9,179.1,245.3,196.7L245.3,196.7z
				 M277.8,208c11,9,21.6,4.9,29.4-4.6c6.6-8,7.9-17.7,5-21.5c-2.5-3.5-5.4-5.8-9.3-8.2c-7.9-4.6-24,3.6-34.2,24
				c-10.3,20.4-3.3,40.1,16.7,39.8c12.2-0.2,24.3-7.4,30.9-17c2.8-4.1,3.3-8.5,2.7-9.8c-0.6-1.4-1.9-1.4-2.7-0.2
				c-6.8,10.4-18.3,23-31.4,22.4C276.5,232.5,272.7,222.5,277.8,208L277.8,208z M279.2,204.5c0.3-0.8,0.8-1.7,1.3-2.7
				c7.4-15,20.5-24.5,23.8-21.8c2.2,1.7-1.3,9.9-6.3,16.6C293.4,202.7,286.9,209.4,279.2,204.5L279.2,204.5z M374.7,219.7
				c2.7-4.1,3.2-7.7,2.8-9.2c-0.3-1.6-1.7-1.4-2.5-0.3c-6.3,8.7-15.6,17.7-27.9,24.3c6.6-15.3,16.3-34.2,21-43.4
				c4.1-8,2.8-14.8,0.6-17.7c-1.4-1.3-2.5-0.9-3.9,1.1c-5.5,8-12.3,22.2-19.1,33.9c-8,13.7-15.9,23.8-22.1,23.4
				c-3.6-0.3-3.9-5.8-0.8-13.6c3-7.4,6.5-13.9,12.2-23c5.8-9.3,6.8-15.9,3-21c-1.1-1.6-2.7-1.7-3.9,0c-10.3,14.2-18,29.8-21.5,39.9
				c-3.6,10.4-3.3,21.9,8,22.9c6.3,0.5,12.3-3.6,17.2-8.7c-1.7,3.8-3.3,7.7-4.9,11.4c-15.6,6.2-29,15.6-33.8,29.8
				c-3.2,9.3,0,14.8,3.2,19.6c3,4.4,6,4.4,9,3.3c13.1-5,24.3-30.5,33.1-51.6C357.5,235.5,368.5,229.5,374.7,219.7L374.7,219.7z
				 M330.2,246.4c-9.8,23.2-22.7,40.4-24.8,37.4C302.6,279.8,309.7,258.2,330.2,246.4L330.2,246.4z"/>
			<path id="Downtown" class="st1" d="M56,77.3c0,0.4,0.3,0.8,0.8,0.8h10.5c8.3,0,15-6.7,15-15c0-8.2-6.8-14.9-15-14.9H56.8
				c-0.4,0-0.8,0.4-0.8,0.8V77.3z M62.7,71.8V54.4h4.1c4.8,0,8.4,3.8,8.4,8.7c0,4.9-3.5,8.7-8.4,8.7H62.7z M85.3,63.1
				c0,8.6,6.8,15.4,15.4,15.4s15.4-6.8,15.4-15.4s-6.9-15.5-15.4-15.5S85.3,54.6,85.3,63.1L85.3,63.1z M92.2,63.1
				c0-4.7,3.9-8.6,8.5-8.6c4.7,0,8.6,3.9,8.6,8.6c0,4.7-3.9,8.5-8.6,8.5C96,71.7,92.2,67.8,92.2,63.1L92.2,63.1z M126.5,77.9
				c0.1,0.3,0.4,0.6,0.8,0.6h0.7c0.3,0,0.6-0.2,0.7-0.5l7.8-17.5h0.1l7.8,17.5c0.1,0.3,0.4,0.5,0.7,0.5h0.7c0.3,0,0.7-0.3,0.8-0.6
				l8.1-28.8c0.2-0.6-0.2-1-0.8-1h-5c-0.3,0-0.7,0.3-0.8,0.6l-3.7,14.5h-0.2l-6.6-15.1c-0.1-0.3-0.3-0.5-0.7-0.5h-0.8
				c-0.3,0-0.6,0.2-0.7,0.5l-6.6,15.1h-0.2L125,48.7c-0.1-0.3-0.4-0.6-0.8-0.6h-5c-0.6,0-0.9,0.4-0.8,1L126.5,77.9z M159.4,77.3
				c0,0.4,0.4,0.8,0.8,0.8h5.1c0.5,0,0.8-0.4,0.8-0.8v-16h0l16.9,17c0.1,0.1,0.4,0.2,0.6,0.2h0.7c0.4,0,0.8-0.3,0.8-0.8V48.9
				c0-0.4-0.4-0.8-0.8-0.8h-5.1c-0.5,0-0.8,0.4-0.8,0.8v15.2h0l-17.1-16.4h-1.1c-0.4,0-0.8,0.3-0.8,0.8L159.4,77.3z M196.3,77.3
				c0,0.4,0.4,0.8,0.8,0.8h5.1c0.4,0,0.8-0.4,0.8-0.8V54.4h6.1c0.5,0,0.8-0.4,0.8-0.8v-4.7c0-0.4-0.3-0.8-0.8-0.8h-19
				c-0.5,0-0.8,0.4-0.8,0.8v4.7c0,0.4,0.3,0.8,0.8,0.8h6.1V77.3z M211.9,63.1c0,8.6,6.8,15.4,15.4,15.4c8.6,0,15.4-6.8,15.4-15.4
				s-6.9-15.5-15.4-15.5C218.8,47.7,211.9,54.6,211.9,63.1L211.9,63.1z M218.8,63.1c0-4.7,3.9-8.6,8.5-8.6c4.7,0,8.6,3.9,8.6,8.6
				c0,4.7-3.9,8.5-8.6,8.5C222.7,71.7,218.8,67.8,218.8,63.1L218.8,63.1z M253.2,77.9c0.1,0.3,0.4,0.6,0.8,0.6h0.7
				c0.3,0,0.6-0.2,0.7-0.5l7.8-17.5h0.1l7.8,17.5c0.1,0.3,0.4,0.5,0.7,0.5h0.7c0.3,0,0.7-0.3,0.8-0.6l8.1-28.8c0.2-0.6-0.2-1-0.8-1
				h-5c-0.3,0-0.7,0.3-0.8,0.6l-3.7,14.5H271l-6.6-15.1c-0.1-0.3-0.3-0.5-0.7-0.5h-0.8c-0.3,0-0.6,0.2-0.7,0.5l-6.6,15.1h-0.2
				l-3.7-14.5c-0.1-0.3-0.4-0.6-0.8-0.6h-5c-0.6,0-0.9,0.4-0.8,1L253.2,77.9z M286,77.3c0,0.4,0.4,0.8,0.8,0.8h5.1
				c0.5,0,0.8-0.4,0.8-0.8v-16h0l16.9,17c0.1,0.1,0.4,0.2,0.6,0.2h0.7c0.4,0,0.8-0.3,0.8-0.8V48.9c0-0.4-0.4-0.8-0.8-0.8h-5.1
				c-0.5,0-0.8,0.4-0.8,0.8v15.2h0l-17.1-16.4h-1.1c-0.4,0-0.8,0.3-0.8,0.8L286,77.3z"/>
			<path id="Welcome-to" class="st1" d="M104.2,28.8c0,0.3,0.3,0.6,0.6,0.6h0.6c0.3,0,0.6-0.2,0.7-0.4l9-18.5h0.2l3.5,18.5
				c0.1,0.3,0.3,0.5,0.6,0.5h0.6c0.3,0,0.6-0.2,0.7-0.6L131,2.3c0.2-0.6,0-0.9-0.5-0.9h-2.8c-0.4,0-0.6,0.3-0.7,0.6l-6.4,17.3h-0.2
				l-3.2-17.8c0-0.2-0.3-0.4-0.6-0.4H116c-0.3,0-0.6,0.2-0.7,0.4L107,19.3h-0.2l-1.5-17.3c0-0.3-0.2-0.6-0.6-0.6H102
				c-0.5,0-0.8,0.4-0.7,0.9L104.2,28.8z M129.2,22.3c0,3.9,2.3,7.1,6.2,7.1c2.4,0,4.3-1,5.6-2c0.5-0.4,0.4-0.7,0.2-1l-1.1-1.5
				c-0.3-0.4-0.5-0.2-0.9,0c-0.7,0.5-2,1.1-3.2,1.1c-2.2,0-3.3-1.9-3.1-4.1c4.1,0.5,10.5-0.2,10.5-4.7c0-2.9-2.3-4.5-5.3-4.5
				C132.7,12.8,129.2,17.3,129.2,22.3L129.2,22.3z M133.4,19.4c0.5-2,2-3.5,4.2-3.5c1.1,0,2.1,0.6,2.1,1.7
				C139.7,19.8,135.6,19.6,133.4,19.4L133.4,19.4z M145.6,28.3c0,0.4,0.2,0.7,0.6,0.7h2.4c0.4,0,0.7-0.4,0.7-0.7L153,2.1
				c0-0.4-0.2-0.7-0.6-0.7H150c-0.4,0-0.7,0.4-0.8,0.7L145.6,28.3z M154.2,22.3c0,4.1,2.9,7.1,6.4,7.1c2.5,0,4.5-1.3,6-3.3
				c0.3-0.4,0.3-0.8-0.1-1.1l-1.4-1.1c-0.3-0.2-0.6-0.3-0.9,0.1c-0.7,0.8-1.6,2.1-3.2,2.1c-1.9,0-3-1.7-3-4c0-3.1,2.3-5.8,4.7-5.8
				c1.1,0,1.9,0.6,2.5,1.3c0.2,0.3,0.4,0.5,0.9,0.2l1.4-1c0.4-0.3,0.5-0.7,0.3-1.1c-0.9-1.6-2.6-2.8-4.8-2.8
				C158.4,12.8,154.2,17,154.2,22.3L154.2,22.3z M170.1,22.2c0,3.9,2.7,7.2,6.2,7.2c4.8,0,8.5-4.3,8.5-9.4c0-3.8-2.6-7.1-6.2-7.1
				C173.8,12.8,170.1,17.1,170.1,22.2L170.1,22.2z M176.8,26c-1.9,0-3.1-1.9-3.1-4.1c0-3.1,2.1-5.6,4.5-5.6c1.9,0,3.1,1.9,3.1,4.1
				C181.2,23.4,179.1,26,176.8,26L176.8,26z M187.7,28.3c-0.1,0.4,0.2,0.7,0.6,0.7h2.4c0.4,0,0.7-0.4,0.8-0.7l1.4-9.7
				c0.3-0.5,1.7-2.3,3.6-2.3s2.6,1.4,2.2,3.9l-1.1,8c-0.1,0.4,0.2,0.7,0.6,0.7h2.2c0.4,0,0.7-0.4,0.8-0.7l1.1-8.1
				c0.1-0.8,0.2-1.5,0.2-1.9c0.2-0.2,1.7-2,3.7-2c1.9,0,2.6,1.5,2.2,3.9l-1.1,8c0,0.4,0.2,0.7,0.6,0.7h2.3c0.4,0,0.7-0.4,0.8-0.7
				l1.1-7.9c0.6-4.1-0.5-7.5-4.9-7.5c-2.6,0-4.9,2.1-5.4,2.5c-0.9-1.6-2.2-2.5-4.3-2.5c-2.6,0-4.5,1.7-5,2.2l-0.2-1.3
				c0-0.3-0.2-0.5-0.6-0.5h-1.1c-0.5,0-0.7,0.4-0.8,0.7L187.7,28.3z M215.6,22.3c0,3.9,2.3,7.1,6.2,7.1c2.4,0,4.3-1,5.6-2
				c0.5-0.4,0.4-0.7,0.2-1l-1.1-1.5c-0.3-0.4-0.5-0.2-0.9,0c-0.7,0.5-2,1.1-3.2,1.1c-2.2,0-3.3-1.9-3.1-4.1
				c4.1,0.5,10.5-0.2,10.5-4.7c0-2.9-2.3-4.5-5.3-4.5C219.1,12.8,215.6,17.3,215.6,22.3L215.6,22.3z M219.8,19.4
				c0.5-2,2-3.5,4.2-3.5c1.1,0,2.1,0.6,2.1,1.7C226.1,19.8,222,19.6,219.8,19.4L219.8,19.4z M242.4,24.7c-0.4,2.8,0.3,4.7,3.1,4.7
				c1.7,0,4-1,4.3-1.2c0.4-0.2,0.6-0.5,0.5-0.9l-0.4-1.8c-0.1-0.4-0.3-0.6-0.7-0.4c-0.4,0.2-1.4,0.7-2.1,0.7c-0.6,0-1.1-0.2-0.9-1.6
				l1.1-7.8h3.4c0.4,0,0.7-0.4,0.7-0.7l0.3-1.8c0.1-0.4-0.2-0.7-0.6-0.7h-3.4l0.6-4.4c0-0.4-0.2-0.7-0.6-0.7l-2.4,0
				c-0.4,0-0.7,0.4-0.8,0.7l-0.6,4.4h-1.8c-0.4,0-0.7,0.3-0.7,0.7l-0.3,1.8c-0.1,0.4,0.2,0.7,0.6,0.7h1.7L242.4,24.7z M253.6,22.2
				c0,3.9,2.7,7.2,6.2,7.2c4.8,0,8.5-4.3,8.5-9.4c0-3.8-2.6-7.1-6.2-7.1C257.3,12.8,253.6,17.1,253.6,22.2L253.6,22.2z M260.3,26
				c-1.9,0-3.1-1.9-3.1-4.1c0-3.1,2.1-5.6,4.5-5.6c1.9,0,3.1,1.9,3.1,4.1C264.7,23.4,262.6,26,260.3,26L260.3,26z"/>
			<path id="Line" class="st2" d="M150.6,107.6h67.6"/>
		</g>
	</g>
</g>
</svg>
