<?xml version="1.0" encoding="UTF-8" standalone="no"?>
<svg width="55px" height="56px" viewBox="0 0 55 56" version="1.1" xmlns="http://www.w3.org/2000/svg" xmlns:xlink="http://www.w3.org/1999/xlink">
    <!-- Generator: Sketch 3.8.3 (29802) - http://www.bohemiancoding.com/sketch -->
    <title>fb</title>
    <desc>Created with Sketch.</desc>
    <defs></defs>
    <g id="Page-1" stroke="none" stroke-width="1" fill="none" fill-rule="evenodd">
        <g id="fb">
            <g id="Welcome">
                <g id="Desktop-HD-Copy-13">
                    <g id="Group-15">
                        <g id="Group-2" transform="translate(0.000000, 0.016362)">
                            <rect id="Rectangle-54" fill="#D0D0D0" x="6" y="6" width="49" height="49" rx="5"></rect>
                            <rect id="Rectangle-54" fill="#FFFFFF" x="0" y="0" width="49" height="49" rx="5"></rect>
                            <path d="M44.1016362,0 L4.9147258,0 C2.22062571,0 0.016362,2.20426371 0.016362,4.8983638 L0.016362,44.0852742 C0.016362,46.7793743 2.22062571,48.983638 4.9147258,48.983638 L44.1016362,48.983638 C46.7957363,48.983638 49,46.7793743 49,44.0852742 L49,4.8983638 C49,2.20426371 46.7957363,0 44.1016362,0 L44.1016362,0 Z M24.508181,14.6950914 C29.8963812,14.6950914 34.3049086,19.1036188 34.3049086,24.491819 C34.3049086,29.8800192 29.8963812,34.2885466 24.508181,34.2885466 C19.1199808,34.2885466 14.7114534,29.8800192 14.7114534,24.491819 C14.7114534,19.1036188 19.1199808,14.6950914 24.508181,14.6950914 L24.508181,14.6950914 Z M6.13931675,44.0852742 C5.40456218,44.0852742 4.9147258,43.5954378 4.9147258,42.8606833 L4.9147258,22.0426371 L10.0580078,22.0426371 C9.8130896,22.7773917 9.8130896,23.7570644 9.8130896,24.491819 C9.8130896,32.5741193 16.4258807,39.1869104 24.508181,39.1869104 C32.5904813,39.1869104 39.2032724,32.5741193 39.2032724,24.491819 C39.2032724,23.7570644 39.2032724,22.7773917 38.9583542,22.0426371 L44.1016362,22.0426371 L44.1016362,42.8606833 C44.1016362,43.5954378 43.6117998,44.0852742 42.8770452,44.0852742 L6.13931675,44.0852742 L6.13931675,44.0852742 Z M44.1016362,11.0213185 C44.1016362,11.7560731 43.6117998,12.2459095 42.8770452,12.2459095 L37.9786815,12.2459095 C37.2439269,12.2459095 36.7540905,11.7560731 36.7540905,11.0213185 L36.7540905,6.12295475 C36.7540905,5.38820018 37.2439269,4.8983638 37.9786815,4.8983638 L42.8770452,4.8983638 C43.6117998,4.8983638 44.1016362,5.38820018 44.1016362,6.12295475 L44.1016362,11.0213185 L44.1016362,11.0213185 Z" id="Shape" fill="#277296"></path>
                        </g>
                    </g>
                </g>
            </g>
        </g>
    </g>
</svg>