<?xml version="1.0" encoding="UTF-8" standalone="no"?>
<svg width="290px" height="242px" viewBox="0 0 290 242" version="1.1" xmlns="http://www.w3.org/2000/svg" xmlns:xlink="http://www.w3.org/1999/xlink">
    <!-- Generator: Sketch 3.6.1 (26313) - http://www.bohemiancoding.com/sketch -->
    <title>siteicon</title>
    <desc>Created with Sketch.</desc>
    <defs>
        <path id="path-1" d="M89.5389276,0.530640669 L0.261072423,0.530640669 L0.261072423,116.60766 L89.5389276,116.60766 L89.5389276,0.530640669 L89.5389276,0.530640669 Z"></path>
        <path id="path-3" d="M0,184.706128 L249.575209,184.706128 L249.575209,0.69637883 L0,0.69637883 L0,184.706128 Z"></path>
    </defs>
    <g id="Page-1" stroke="none" stroke-width="1" fill="none" fill-rule="evenodd">
        <g id="siteicon">
            <g id="Page-1" transform="translate(20.000000, 28.000000)">
                <path d="M54.1625348,60.3277159 C51.1855153,53.0164345 46.2551532,48.8458217 39.3721448,47.8123955 L37.4181058,47.6724234 L34.4877437,47.6724234 L34.4877437,88.7302228 L37.1395543,88.7302228 L39.3721448,88.7302228 C42.9988858,88.1675487 45.9529248,86.9732591 48.2321727,85.1452646 C50.5107242,83.3172702 52.3254875,80.7392758 53.6743733,77.4112813 C55.0232591,74.0846797 55.6980501,70.9669916 55.6980501,68.0610028 C55.6980501,65.4356546 55.1855153,62.8576602 54.1625348,60.3277159 L54.1625348,60.3277159 Z M87.2551532,60.1194986 C87.44039,61.2392758 87.5796657,62.5672702 87.6729805,64.1062674 C87.7649025,65.6452646 87.8122563,67.0672702 87.8122563,68.3722841 C87.8122563,82.5477716 82.4250696,94.4850975 71.6520891,104.182869 C67.287883,108.099304 62.5733983,111.105571 57.5128134,113.205153 C52.4508357,115.304039 46.6688022,116.352089 40.1694986,116.352089 L34.874234,116.352089 L2.27674095,116.352089 L2.27674095,18.8534819 L36.1277159,18.8534819 L41.144429,18.8534819 C51.4522284,19.7866295 59.7871866,22.2114206 66.1493036,26.1278552 C72.5100279,30.0456825 77.8275766,36.0129526 82.1005571,44.0324513 C84.8867688,49.1626741 86.6047354,54.5240947 87.2551532,60.1194986 L87.2551532,60.1194986 Z" id="Fill-1" fill="#EC0B8C"></path>
                <g id="Group-5" transform="translate(76.601671, 0.165738)">
                    <mask id="mask-2" fill="white">
                        <use xlink:href="#path-1"></use>
                    </mask>
                    <g id="Clip-4"></g>
                    <path d="M30.2666435,26.8367688 L30.2666435,90.2190808 L37.5925487,90.2190808 C43.8383705,90.2190808 48.2819638,89.3889972 50.9219359,87.7267409 C53.5612117,86.0644847 55.6287604,83.1633705 57.1245822,79.0220056 C58.6190111,74.8806407 59.3683148,68.1682451 59.3683148,58.8841226 C59.3683148,46.5937326 57.6956128,38.1786908 54.3522981,33.6417827 C51.0089833,29.105571 45.4665042,26.8367688 37.723468,26.8367688 L30.2666435,26.8367688 Z M0.261072423,0.530362117 L44.800766,0.530362117 C53.5807103,0.530362117 60.6726323,1.95584958 66.0772284,4.80682451 C71.4825209,7.65710306 75.9490947,11.7483287 79.479039,17.0784123 C83.0082869,22.410585 85.5667827,28.6132312 87.1566156,35.6856546 C88.7429666,42.7594708 89.5389276,50.2552925 89.5389276,58.1731198 C89.5389276,70.5784123 88.3585655,80.1981894 85.9978412,87.0345404 C83.6364206,93.8708914 80.3606546,99.5965181 76.1698468,104.216295 C71.9783426,108.83468 67.4783426,111.909889 62.6691504,113.439833 C56.0953343,115.551253 50.1392061,116.60766 44.800766,116.60766 L0.261072423,116.60766 L0.261072423,0.530362117 Z" id="Fill-3" fill="#F79727" mask="url(#mask-2)"></path>
                </g>
                <path d="M2.91949861,146.888092 L7.14303621,146.888092 C12.9814763,146.888092 17.5162953,144.062187 17.5162953,137.757869 C17.5162953,131.453552 12.9814763,128.627646 7.14303621,128.627646 L2.91949861,128.627646 L2.91949861,146.888092 Z M0.867966574,126.762744 L7.66949861,126.762744 C19.0991643,126.762744 19.5650418,136.141574 19.5650418,137.757869 C19.5650418,139.371379 19.0991643,148.752994 7.66949861,148.752994 L0.867966574,148.752994 L0.867966574,126.762744 Z" id="Fill-6" fill="#221F20"></path>
                <path d="M41.86539,147.448468 C47.6119081,147.448468 51.1829387,143.223538 51.1829387,137.758357 C51.1829387,132.291086 47.6119081,128.068245 41.86539,128.068245 C36.1195682,128.068245 32.5478412,132.291086 32.5478412,137.758357 C32.5478412,143.223538 36.1195682,147.448468 41.86539,147.448468 M41.86539,126.204039 C48.5736072,126.204039 53.2323816,131.048747 53.2323816,137.758357 C53.2323816,144.465877 48.5736072,149.311281 41.86539,149.311281 C35.1550836,149.311281 30.4990947,144.465877 30.4990947,137.758357 C30.4990947,131.048747 35.1550836,126.204039 41.86539,126.204039" id="Fill-8" fill="#221F20"></path>
                <path d="M62.7360028,126.762813 L64.8474234,126.762813 L70.3146936,146.234958 L70.3773677,146.234958 L75.9351671,126.762813 L78.5438022,126.762813 L84.1022981,146.234958 L84.1663649,146.234958 L89.6329387,126.762813 L91.743663,126.762813 L85.3460306,148.753064 L82.8307103,148.753064 L77.2715181,129.185515 L77.2095404,129.185515 L71.6503482,148.753064 L69.1343315,148.753064 L62.7360028,126.762813 Z" id="Fill-10" fill="#221F20"></path>
                <path d="M102.677507,126.762813 L105.316783,126.762813 L118.703969,146.019777 L118.765251,146.019777 L118.765251,126.762813 L120.816086,126.762813 L120.816086,148.753064 L118.174721,148.753064 L104.788928,129.4961 L104.728343,129.4961 L104.728343,148.753064 L102.677507,148.753064 L102.677507,126.762813 Z" id="Fill-12" fill="#221F20"></path>
                <path d="M139.479457,128.627925 L131.964136,128.627925 L131.964136,126.763022 L149.045613,126.763022 L149.045613,128.627925 L141.530292,128.627925 L141.530292,148.752577 L139.479457,148.752577 L139.479457,128.627925 Z" id="Fill-14" fill="#221F20"></path>
                <path d="M170.132382,147.448468 C175.8789,147.448468 179.44993,143.223538 179.44993,137.758357 C179.44993,132.291086 175.8789,128.068245 170.132382,128.068245 C164.388649,128.068245 160.817618,132.291086 160.817618,137.758357 C160.817618,143.223538 164.388649,147.448468 170.132382,147.448468 M170.132382,126.204039 C176.843384,126.204039 181.50007,131.048747 181.50007,137.758357 C181.50007,144.465877 176.843384,149.311281 170.132382,149.311281 C163.424861,149.311281 158.768175,144.465877 158.768175,137.758357 C158.768175,131.048747 163.424861,126.204039 170.132382,126.204039" id="Fill-16" fill="#221F20"></path>
                <path d="M191.005362,126.762813 L193.116783,126.762813 L198.584053,146.234958 L198.646031,146.234958 L204.204526,126.762813 L206.812465,126.762813 L212.372354,146.234958 L212.435724,146.234958 L217.902298,126.762813 L220.01163,126.762813 L213.614694,148.753064 L211.100766,148.753064 L205.540181,129.185515 L205.4789,129.185515 L199.919708,148.753064 L197.405084,148.753064 L191.005362,126.762813 Z" id="Fill-18" fill="#221F20"></path>
                <path d="M230.945125,126.762813 L233.583705,126.762813 L246.970891,146.019777 L247.032869,146.019777 L247.032869,126.762813 L249.082312,126.762813 L249.082312,148.753064 L246.441643,148.753064 L233.057242,129.4961 L232.995265,129.4961 L232.995265,148.753064 L230.945125,148.753064 L230.945125,126.762813 Z" id="Fill-20" fill="#221F20"></path>
                <path d="M2.20543175,163.964345 L4.08495822,163.964345 C6.68314763,163.964345 8.70264624,162.705292 8.70264624,159.899582 C8.70264624,157.095265 6.68314763,155.835515 4.08495822,155.835515 L2.20543175,155.835515 L2.20543175,163.964345 Z M1.29178273,155.007521 L4.31963788,155.007521 C9.40668524,155.007521 9.61350975,159.180919 9.61350975,159.899582 C9.61350975,160.618942 9.40668524,164.793733 4.31963788,164.793733 L1.29178273,164.793733 L1.29178273,155.007521 Z" id="Fill-22" fill="#221F20"></path>
                <path d="M15.114624,155.007312 L21.1,155.007312 L21.1,155.835306 L16.028273,155.835306 L16.028273,159.320682 L20.7817549,159.320682 L20.7817549,160.149373 L16.028273,160.149373 L16.028273,163.964136 L21.3214485,163.964136 L21.3214485,164.79422 L15.114624,164.79422 L15.114624,155.007312 Z" id="Fill-24" fill="#221F20"></path>
                <path d="M25.3852368,155.007312 L26.3671309,155.007312 L29.5196379,163.591574 L32.6979109,155.007312 L33.6651811,155.007312 L29.9458217,164.79422 L29.0349582,164.79422 L25.3852368,155.007312 Z" id="Fill-26" fill="#221F20"></path>
                <path d="M38.4205432,155.007312 L44.4038301,155.007312 L44.4038301,155.835306 L39.3327994,155.835306 L39.3327994,159.320682 L44.0876741,159.320682 L44.0876741,160.149373 L39.3327994,160.149373 L39.3327994,163.964136 L44.6245822,163.964136 L44.6245822,164.79422 L38.4205432,164.79422 L38.4205432,155.007312 Z" id="Fill-28" fill="#221F20"></path>
                <path d="M50.070961,155.007312 L50.9853064,155.007312 L50.9853064,163.964136 L55.545195,163.964136 L55.545195,164.79422 L50.070961,164.79422 L50.070961,155.007312 Z" id="Fill-30" fill="#221F20"></path>
                <path d="M64.862883,164.213301 C67.4192897,164.213301 69.0098189,162.333078 69.0098189,159.89993 C69.0098189,157.468175 67.4192897,155.589345 64.862883,155.589345 C62.3043872,155.589345 60.7166435,157.468175 60.7166435,159.89993 C60.7166435,162.333078 62.3043872,164.213301 64.862883,164.213301 M64.862883,154.759958 C67.8482591,154.759958 69.9213788,156.915251 69.9213788,159.89993 C69.9213788,162.888092 67.8482591,165.042688 64.862883,165.042688 C61.8768106,165.042688 59.8043872,162.888092 59.8043872,159.89993 C59.8043872,156.915251 61.8768106,154.759958 64.862883,154.759958" id="Fill-32" fill="#221F20"></path>
                <path d="M76.3361421,159.320961 L78.4085655,159.320961 C79.4447772,159.320961 80.4823816,158.877368 80.4823816,157.592549 C80.4823816,156.334192 79.4036908,155.835585 78.3528552,155.835585 L76.3361421,155.835585 L76.3361421,159.320961 Z M75.4217967,155.007591 L78.2421309,155.007591 C79.6244429,155.007591 81.3946379,155.547284 81.3946379,157.592549 C81.3946379,159.361351 79.9844708,160.148955 78.4489554,160.148955 L76.3361421,160.148955 L76.3361421,164.793802 L75.4217967,164.793802 L75.4217967,155.007591 Z" id="Fill-34" fill="#221F20"></path>
                <path d="M86.7162256,155.007312 L88.08461,155.007312 L91.6500696,163.219011 L95.2155292,155.007312 L96.5156685,155.007312 L96.5156685,164.79422 L95.6034123,164.79422 L95.6034123,156.167479 L95.5755571,156.167479 L91.8450557,164.79422 L91.4432451,164.79422 L87.6549443,156.167479 L87.6270891,156.167479 L87.6270891,164.79422 L86.7162256,164.79422 L86.7162256,155.007312 Z" id="Fill-36" fill="#221F20"></path>
                <path d="M102.55578,155.007312 L108.54046,155.007312 L108.54046,155.835306 L103.468733,155.835306 L103.468733,159.320682 L108.223607,159.320682 L108.223607,160.149373 L103.468733,160.149373 L103.468733,163.964136 L108.762604,163.964136 L108.762604,164.79422 L102.55578,164.79422 L102.55578,155.007312 Z" id="Fill-38" fill="#221F20"></path>
                <path d="M114.208565,155.007312 L115.383357,155.007312 L121.34227,163.579039 L121.369429,163.579039 L121.369429,155.007312 L122.281685,155.007312 L122.281685,164.79422 L121.106894,164.79422 L115.147981,156.223886 L115.120125,156.223886 L115.120125,164.79422 L114.208565,164.79422 L114.208565,155.007312 Z" id="Fill-40" fill="#221F20"></path>
                <path d="M130.587744,155.835655 L127.243036,155.835655 L127.243036,155.00766 L134.847493,155.00766 L134.847493,155.835655 L131.499304,155.835655 L131.499304,164.793872 L130.587744,164.793872 L130.587744,155.835655 Z" id="Fill-42" fill="#221F20"></path>
                <path d="M150.284192,156.002925 L148.004248,161.365738 L152.496588,161.365738 L150.284192,156.002925 Z M149.855919,155.007103 L150.795334,155.007103 L154.913719,164.794011 L153.891435,164.794011 L152.828064,162.195822 L147.644916,162.195822 L146.53837,164.794011 L145.586421,164.794011 L149.855919,155.007103 Z" id="Fill-44" fill="#221F20"></path>
                <path d="M166.733426,161.048259 C166.733426,163.133914 165.83649,165.042688 163.167967,165.042688 C160.501532,165.042688 159.601811,163.133914 159.601811,161.048259 L159.601811,155.007173 L160.51337,155.007173 L160.51337,160.812187 C160.51337,162.209819 160.88663,164.213301 163.167967,164.213301 C165.448607,164.213301 165.821866,162.209819 165.821866,160.812187 L165.821866,155.007173 L166.733426,155.007173 L166.733426,161.048259 Z" id="Fill-46" fill="#221F20"></path>
                <path d="M174.862187,155.835655 L171.516783,155.835655 L171.516783,155.00766 L179.118454,155.00766 L179.118454,155.835655 L175.776532,155.835655 L175.776532,164.793872 L174.862187,164.793872 L174.862187,155.835655 Z" id="Fill-48" fill="#221F20"></path>
                <path d="M184.082382,155.007312 L184.994638,155.007312 L184.994638,159.320682 L190.466086,159.320682 L190.466086,155.007312 L191.380432,155.007312 L191.380432,164.79422 L190.466086,164.79422 L190.466086,160.149373 L184.994638,160.149373 L184.994638,164.79422 L184.082382,164.79422 L184.082382,155.007312 Z" id="Fill-50" fill="#221F20"></path>
                <path d="M201.939345,164.213301 C204.497841,164.213301 206.085585,162.333078 206.085585,159.89993 C206.085585,157.468175 204.497841,155.589345 201.939345,155.589345 C199.382242,155.589345 197.793106,157.468175 197.793106,159.89993 C197.793106,162.333078 199.382242,164.213301 201.939345,164.213301 M201.939345,154.759958 C204.926811,154.759958 207.000627,156.915251 207.000627,159.89993 C207.000627,162.888092 204.926811,165.042688 201.939345,165.042688 C198.953969,165.042688 196.88085,162.888092 196.88085,159.89993 C196.88085,156.915251 198.953969,154.759958 201.939345,154.759958" id="Fill-52" fill="#221F20"></path>
                <path d="M213.414624,159.320961 L215.346379,159.320961 C217.27117,159.320961 217.640251,158.256198 217.640251,157.577925 C217.640251,156.900348 217.27117,155.835585 215.346379,155.835585 L213.414624,155.835585 L213.414624,159.320961 Z M212.500279,155.007591 L215.071309,155.007591 C215.847772,155.007591 218.555989,155.007591 218.555989,157.577925 C218.555989,159.445613 217.132591,159.956755 216.053203,160.093942 L218.9,164.793802 L217.864485,164.793802 L215.113092,160.148955 L213.414624,160.148955 L213.414624,164.793802 L212.500279,164.793802 L212.500279,155.007591 Z" id="Fill-54" fill="#221F20"></path>
                <mask id="mask-4" fill="white">
                    <use xlink:href="#path-3"></use>
                </mask>
                <g id="Clip-57"></g>
                <path d="M224.152507,164.794568 L225.064763,164.794568 L225.064763,155.00766 L224.152507,155.00766 L224.152507,164.794568 Z" id="Fill-56" fill="#221F20" mask="url(#mask-4)"></path>
                <path d="M233.372981,155.835655 L230.025487,155.835655 L230.025487,155.00766 L237.629248,155.00766 L237.629248,155.835655 L234.285237,155.835655 L234.285237,164.793872 L233.372981,164.793872 L233.372981,155.835655 Z" id="Fill-58" fill="#221F20" mask="url(#mask-4)"></path>
                <path d="M244.761212,160.578343 L241.167897,155.007312 L242.259819,155.007312 L245.218733,159.650766 L248.247981,155.007312 L249.267479,155.007312 L245.676253,160.578343 L245.676253,164.79422 L244.761212,164.79422 L244.761212,160.578343 Z" id="Fill-59" fill="#221F20" mask="url(#mask-4)"></path>
                <path d="M207.223398,76.9564763 L198.304178,42.2649721 L189.384262,76.9564763 L207.223398,76.9564763 Z M249.57507,114.563719 L216.699025,117.628482 L212.659331,100.797006 L183.962256,100.797006 L180.061838,117.628482 L146.906546,114.563719 L180.200418,18.5887883 L216.560446,18.5887883 L249.57507,114.563719 Z" id="Fill-60" fill="#7C4199" mask="url(#mask-4)"></path>
                <path d="M7.40208914,182.527925 C6.99261838,182.804387 6.56922006,183.00007 6.12980501,183.114276 C5.69108635,183.228482 5.24401114,183.285585 4.78857939,183.285585 C4.25376045,183.285585 3.76420613,183.177646 3.31852368,182.960376 C2.8735376,182.743802 2.49261838,182.439485 2.17576602,182.048816 C1.85891365,181.658148 1.61169916,181.19227 1.43342618,180.65188 C1.2551532,180.110794 1.16601671,179.521657 1.16601671,178.882382 C1.16601671,178.243106 1.2551532,177.654666 1.43342618,177.117758 C1.61169916,176.581546 1.85891365,176.117758 2.17576602,175.727089 C2.49261838,175.336421 2.8735376,175.03071 3.31852368,174.809958 C3.76420613,174.589206 4.25376045,174.477786 4.78857939,174.477786 C5.83175487,174.477786 6.6729805,174.864972 7.31295265,175.637953 L6.83802228,176.230571 C6.7321727,176.080153 6.60194986,175.940181 6.44665738,175.810655 C6.2913649,175.679735 6.1235376,175.569708 5.94178273,175.478482 C5.76072423,175.387953 5.57061281,175.317618 5.37284123,175.26539 C5.17506964,175.214554 4.98008357,175.188788 4.78857939,175.188788 C4.33314763,175.188788 3.92228412,175.283496 3.55668524,175.472911 C3.19038997,175.662326 2.87841226,175.922772 2.62075209,176.253552 C2.3637883,176.585724 2.16532033,176.975696 2.02674095,177.426253 C1.88885794,177.875418 1.81922006,178.36149 1.81922006,178.882382 C1.81922006,179.403273 1.88885794,179.887953 2.02674095,180.337813 C2.16532033,180.787674 2.3637883,181.179039 2.62075209,181.509819 C2.87841226,181.841992 3.19038997,182.102437 3.55668524,182.291156 C3.92228412,182.481267 4.33314763,182.575279 4.78857939,182.575279 C5.16532033,182.575279 5.51768802,182.54046 5.84777159,182.468733 C6.17785515,182.397702 6.47799443,182.267479 6.74888579,182.078064 L6.74888579,179.261212 L5.06643454,179.261212 L5.06643454,178.550209 L7.40208914,178.550209 L7.40208914,182.527925 Z" id="Fill-61" fill="#221F20" mask="url(#mask-4)"></path>
                <path d="M18.9736072,178.385028 L20.3594011,178.385028 C20.7027159,178.385028 20.9812674,178.333496 21.1957521,178.230432 C21.4102368,178.12876 21.5766713,178.002019 21.6957521,177.851602 C21.8148329,177.702577 21.8956128,177.54032 21.9380919,177.366922 C21.9812674,177.193524 22.0028552,177.035446 22.0028552,176.892688 C22.0028552,176.751323 21.9812674,176.593942 21.9380919,176.419847 C21.8956128,176.246448 21.8148329,176.084192 21.6957521,175.933774 C21.5766713,175.784749 21.4102368,175.658008 21.1957521,175.555641 C20.9812674,175.453273 20.7027159,175.401741 20.3594011,175.401741 L18.9736072,175.401741 L18.9736072,178.385028 Z M18.3204039,174.691435 L20.1616295,174.691435 C20.2535515,174.691435 20.3795961,174.695613 20.5376741,174.703273 C20.6964485,174.71163 20.8677577,174.735306 21.0522981,174.774304 C21.2368384,174.813997 21.4255571,174.877368 21.6163649,174.963719 C21.8078691,175.050766 21.9791783,175.176811 22.1316852,175.342549 C22.2827994,175.508287 22.408844,175.717201 22.5077298,175.969986 C22.6066156,176.222772 22.6560585,176.530571 22.6560585,176.892688 C22.6560585,177.295891 22.5982591,177.627368 22.4826602,177.887813 C22.3670613,178.148259 22.2222145,178.359262 22.0474234,178.520822 C21.8726323,178.683078 21.679039,178.803552 21.4680362,178.882242 C21.2570334,178.960933 21.0557799,179.015947 20.8642758,179.047981 L22.903273,183.072354 L22.1609331,183.072354 L20.1915738,179.095334 L18.9736072,179.095334 L18.9736072,183.072354 L18.3204039,183.072354 L18.3204039,174.691435 Z" id="Fill-62" fill="#221F20" mask="url(#mask-4)"></path>
                <path d="M33.1881616,174.691574 L37.4743733,174.691574 L37.4743733,175.40188 L33.8413649,175.40188 L33.8413649,178.385167 L37.2466574,178.385167 L37.2466574,179.094777 L33.8413649,179.094777 L33.8413649,182.362883 L37.6324513,182.362883 L37.6324513,183.072493 L33.1881616,183.072493 L33.1881616,174.691574 Z" id="Fill-63" fill="#221F20" mask="url(#mask-4)"></path>
                <path d="M48.0559192,174.691574 L52.3421309,174.691574 L52.3421309,175.40188 L48.7091226,175.40188 L48.7091226,178.385167 L52.114415,178.385167 L52.114415,179.094777 L48.7091226,179.094777 L48.7091226,182.362883 L52.5002089,182.362883 L52.5002089,183.072493 L48.0559192,183.072493 L48.0559192,174.691574 Z" id="Fill-64" fill="#221F20" mask="url(#mask-4)"></path>
                <path d="M62.9236769,174.691574 L63.5768802,174.691574 L63.5768802,182.362883 L66.8435933,182.362883 L66.8435933,183.072493 L62.9236769,183.072493 L62.9236769,174.691574 Z" id="Fill-65" fill="#221F20" mask="url(#mask-4)"></path>
                <path d="M76.8710306,174.691574 L81.1572423,174.691574 L81.1572423,175.40188 L77.524234,175.40188 L77.524234,178.385167 L80.9295265,178.385167 L80.9295265,179.094777 L77.524234,179.094777 L77.524234,182.362883 L81.3153203,182.362883 L81.3153203,183.072493 L76.8710306,183.072493 L76.8710306,174.691574 Z" id="Fill-66" fill="#221F20" mask="url(#mask-4)"></path>
                <path d="M93.292688,179.462187 L90.7188719,174.691295 L91.5009053,174.691295 L93.6192897,178.669011 L95.787117,174.691295 L96.5197075,174.691295 L93.9458914,179.462187 L93.9458914,183.072911 L93.292688,183.072911 L93.292688,179.462187 Z" id="Fill-67" fill="#221F20" mask="url(#mask-4)"></path>
                <path d="M105.389206,182.006964 L106.082103,182.006964 L105.319568,184.706128 L104.736003,184.706128 L105.389206,182.006964 Z" id="Fill-68" fill="#221F20" mask="url(#mask-4)"></path>
                <path d="M134.115181,181.758774 C133.77883,182.303343 133.388858,182.694011 132.946657,182.93078 C132.504457,183.166852 132.026741,183.285237 131.512117,183.285237 C130.977298,183.285237 130.487047,183.177298 130.041365,182.960724 C129.596379,182.743454 129.21546,182.439833 128.898607,182.048468 C128.581755,181.657799 128.333844,181.192618 128.155571,180.651532 C127.977994,180.111142 127.888858,179.521309 127.888858,178.882033 C127.888858,178.242758 127.977994,177.654318 128.155571,177.118106 C128.333844,176.581198 128.581755,176.117409 128.898607,175.727437 C129.21546,175.336072 129.596379,175.031058 130.041365,174.80961 C130.487047,174.588858 130.977298,174.478134 131.512117,174.478134 C131.986351,174.478134 132.430641,174.578412 132.842897,174.780362 C133.25585,174.981616 133.616574,175.318663 133.926462,175.792897 L133.39234,176.32493 C133.174373,175.93078 132.895822,175.642479 132.555989,175.460724 C132.21546,175.278969 131.867967,175.18844 131.512117,175.18844 C131.055989,175.18844 130.645822,175.283148 130.279526,175.473259 C129.913231,175.661978 129.601253,175.922423 129.343593,176.2539 C129.08663,176.585376 128.888162,176.976045 128.750279,177.425905 C128.611699,177.875766 128.542061,178.361142 128.542061,178.882033 C128.542061,179.402925 128.611699,179.887604 128.750279,180.338162 C128.888162,180.787326 129.08663,181.178691 129.343593,181.510167 C129.601253,181.841643 129.913231,182.102089 130.279526,182.291504 C130.645822,182.480919 131.055989,182.575627 131.512117,182.575627 C131.69039,182.575627 131.874234,182.549861 132.066435,182.498329 C132.257242,182.446797 132.443872,182.368106 132.62493,182.262256 C132.806685,182.155014 132.980084,182.021309 133.144429,181.859749 C133.310167,181.697493 133.455014,181.502507 133.580362,181.273398 L134.115181,181.758774 Z" id="Fill-69" fill="#221F20" mask="url(#mask-4)"></path>
                <path d="M144.508496,178.882103 C144.508496,179.402994 144.578134,179.887674 144.716713,180.338231 C144.854596,180.787396 145.053064,181.17876 145.310028,181.50954 C145.567688,181.841713 145.879666,182.102159 146.245961,182.291574 C146.612256,182.480989 147.022423,182.575696 147.478552,182.575696 C147.933287,182.575696 148.34415,182.480989 148.710446,182.291574 C149.076741,182.102159 149.388719,181.841713 149.645682,181.50954 C149.903343,181.17876 150.101114,180.787396 150.239694,180.338231 C150.378969,179.887674 150.447214,179.402994 150.447214,178.882103 C150.447214,178.361212 150.378969,177.875836 150.239694,177.425975 C150.101114,176.976114 149.903343,176.585446 149.645682,176.253969 C149.388719,175.922493 149.076741,175.662047 148.710446,175.472632 C148.34415,175.283217 147.933287,175.18851 147.478552,175.18851 C147.022423,175.18851 146.612256,175.283217 146.245961,175.472632 C145.879666,175.662047 145.567688,175.922493 145.310028,176.253969 C145.053064,176.585446 144.854596,176.976114 144.716713,177.425975 C144.578134,177.875836 144.508496,178.361212 144.508496,178.882103 M143.855292,178.882103 C143.855292,178.242827 143.943733,177.654387 144.122006,177.118175 C144.300279,176.581267 144.548189,176.117479 144.865042,175.727507 C145.181894,175.336142 145.562813,175.031128 146.007799,174.80968 C146.453482,174.588928 146.943733,174.478203 147.478552,174.478203 C148.012674,174.478203 148.502228,174.588928 148.947911,174.80968 C149.393593,175.031128 149.774513,175.336142 150.091365,175.727507 C150.408217,176.117479 150.655432,176.581267 150.833705,177.118175 C151.011978,177.654387 151.101114,178.242827 151.101114,178.882103 C151.101114,179.521379 151.011978,180.111212 150.833705,180.651602 C150.655432,181.191992 150.408217,181.657869 150.091365,182.048538 C149.774513,182.439206 149.393593,182.743524 148.947911,182.960097 C148.502228,183.177368 148.012674,183.285306 147.478552,183.285306 C146.943733,183.285306 146.453482,183.177368 146.007799,182.960097 C145.562813,182.743524 145.181894,182.439206 144.865042,182.048538 C144.548189,181.657869 144.300279,181.191992 144.122006,180.651602 C143.943733,180.111212 143.855292,179.521379 143.855292,178.882103" id="Fill-70" fill="#221F20" mask="url(#mask-4)"></path>
                <path d="M161.564345,174.691574 L162.217549,174.691574 L162.217549,182.362883 L165.484262,182.362883 L165.484262,183.072493 L161.564345,183.072493 L161.564345,174.691574 Z" id="Fill-71" fill="#221F20" mask="url(#mask-4)"></path>
                <path d="M175.70954,178.882103 C175.70954,179.402994 175.779178,179.887674 175.917758,180.338231 C176.055641,180.787396 176.254109,181.17876 176.511072,181.50954 C176.768733,181.841713 177.08071,182.102159 177.447006,182.291574 C177.813301,182.480989 178.223468,182.575696 178.679596,182.575696 C179.134331,182.575696 179.545195,182.480989 179.91149,182.291574 C180.277786,182.102159 180.589763,181.841713 180.846727,181.50954 C181.104387,181.17876 181.302159,180.787396 181.440738,180.338231 C181.580014,179.887674 181.648259,179.402994 181.648259,178.882103 C181.648259,178.361212 181.580014,177.875836 181.440738,177.425975 C181.302159,176.976114 181.104387,176.585446 180.846727,176.253969 C180.589763,175.922493 180.277786,175.662047 179.91149,175.472632 C179.545195,175.283217 179.134331,175.18851 178.679596,175.18851 C178.223468,175.18851 177.813301,175.283217 177.447006,175.472632 C177.08071,175.662047 176.768733,175.922493 176.511072,176.253969 C176.254109,176.585446 176.055641,176.976114 175.917758,177.425975 C175.779178,177.875836 175.70954,178.361212 175.70954,178.882103 M175.056337,178.882103 C175.056337,178.242827 175.144777,177.654387 175.32305,177.118175 C175.501323,176.581267 175.749234,176.117479 176.066086,175.727507 C176.382939,175.336142 176.763858,175.031128 177.208844,174.80968 C177.654526,174.588928 178.144777,174.478203 178.679596,174.478203 C179.213719,174.478203 179.703273,174.588928 180.148955,174.80968 C180.594638,175.031128 180.975557,175.336142 181.292409,175.727507 C181.609262,176.117479 181.856476,176.581267 182.034749,177.118175 C182.213022,177.654387 182.302159,178.242827 182.302159,178.882103 C182.302159,179.521379 182.213022,180.111212 182.034749,180.651602 C181.856476,181.191992 181.609262,181.657869 181.292409,182.048538 C180.975557,182.439206 180.594638,182.743524 180.148955,182.960097 C179.703273,183.177368 179.213719,183.285306 178.679596,183.285306 C178.144777,183.285306 177.654526,183.177368 177.208844,182.960097 C176.763858,182.743524 176.382939,182.439206 176.066086,182.048538 C175.749234,181.657869 175.501323,181.191992 175.32305,180.651602 C175.144777,180.111212 175.056337,179.521379 175.056337,178.882103" id="Fill-72" fill="#221F20" mask="url(#mask-4)"></path>
                <path d="M193.418245,178.385028 L194.803343,178.385028 C195.146657,178.385028 195.425905,178.333496 195.639694,178.230432 C195.854875,178.12876 196.021309,178.002019 196.139694,177.851602 C196.258774,177.702577 196.339554,177.54032 196.38273,177.366922 C196.425209,177.193524 196.447493,177.035446 196.447493,176.892688 C196.447493,176.751323 196.425209,176.593942 196.38273,176.419847 C196.339554,176.246448 196.258774,176.084192 196.139694,175.933774 C196.021309,175.784749 195.854875,175.658008 195.639694,175.555641 C195.425905,175.453273 195.146657,175.401741 194.803343,175.401741 L193.418245,175.401741 L193.418245,178.385028 Z M192.765042,174.691435 L194.605571,174.691435 C194.698189,174.691435 194.823538,174.695613 194.981616,174.703273 C195.14039,174.71163 195.312396,174.735306 195.49624,174.774304 C195.681476,174.813997 195.869499,174.877368 196.061003,174.963719 C196.251811,175.050766 196.423816,175.176811 196.575627,175.342549 C196.727437,175.508287 196.852786,175.717201 196.951671,175.969986 C197.051253,176.222772 197.1,176.530571 197.1,176.892688 C197.1,177.295891 197.042201,177.627368 196.927298,177.887813 C196.811699,178.148259 196.666156,178.359262 196.491365,178.520822 C196.316574,178.683078 196.123677,178.803552 195.912674,178.882242 C195.700975,178.960933 195.499721,179.015947 195.308914,179.047981 L197.347911,183.072354 L196.605571,183.072354 L194.635515,179.095334 L193.418245,179.095334 L193.418245,183.072354 L192.765042,183.072354 L192.765042,174.691435 Z" id="Fill-73" fill="#221F20" mask="url(#mask-4)"></path>
                <path d="M210.087813,175.543733 L208.454109,180.137047 L211.671379,180.137047 L210.087813,175.543733 Z M209.78071,174.691365 L210.453412,174.691365 L213.403969,183.072981 L212.671379,183.072981 L211.908844,180.846657 L208.197145,180.846657 L207.404666,183.072981 L206.722214,183.072981 L209.78071,174.691365 Z" id="Fill-74" fill="#221F20" mask="url(#mask-4)"></path>
                <path d="M223.975905,182.362674 L225.322006,182.362674 C225.783705,182.362674 226.216156,182.293036 226.618663,182.155153 C227.02117,182.01727 227.370752,181.805571 227.668106,181.522145 C227.96546,181.238022 228.198747,180.876602 228.370752,180.438579 C228.542758,180.000557 228.628412,179.481755 228.628412,178.882173 C228.628412,178.282591 228.542758,177.763788 228.370752,177.325766 C228.198747,176.887744 227.96546,176.526323 227.668106,176.242201 C227.370752,175.958078 227.02117,175.747075 226.618663,175.609192 C226.216156,175.471309 225.783705,175.401671 225.322006,175.401671 L223.975905,175.401671 L223.975905,182.362674 Z M223.322702,174.691365 L225.490529,174.691365 C226.097075,174.691365 226.611699,174.779805 227.034401,174.957382 C227.456407,175.134958 227.808078,175.361978 228.088022,175.63844 C228.369359,175.914903 228.590111,176.220613 228.751671,176.555571 C228.913231,176.891922 229.032312,177.212256 229.108217,177.520752 C229.184123,177.828552 229.232173,178.107103 229.251671,178.355014 C229.27117,178.604318 229.280919,178.779109 229.280919,178.882173 C229.280919,178.98454 229.27117,179.160028 229.251671,179.408635 C229.232173,179.657242 229.184123,179.935794 229.108217,180.243593 C229.032312,180.550696 228.913231,180.872423 228.751671,181.208078 C228.590111,181.543733 228.369359,181.849443 228.088022,182.125209 C227.808078,182.402368 227.456407,182.628691 227.034401,182.806267 C226.611699,182.983844 226.097075,183.072981 225.490529,183.072981 L223.322702,183.072981 L223.322702,174.691365 Z" id="Fill-75" fill="#221F20" mask="url(#mask-4)"></path>
                <path d="M239.94234,178.882103 C239.94234,179.402994 240.011978,179.887674 240.150557,180.338231 C240.28844,180.787396 240.486908,181.17876 240.743872,181.50954 C241.001532,181.841713 241.31351,182.102159 241.679805,182.291574 C242.0461,182.480989 242.456267,182.575696 242.912396,182.575696 C243.367131,182.575696 243.777994,182.480989 244.14429,182.291574 C244.510585,182.102159 244.822563,181.841713 245.079526,181.50954 C245.337187,181.17876 245.534958,180.787396 245.673538,180.338231 C245.812813,179.887674 245.881058,179.402994 245.881058,178.882103 C245.881058,178.361212 245.812813,177.875836 245.673538,177.425975 C245.534958,176.976114 245.337187,176.585446 245.079526,176.253969 C244.822563,175.922493 244.510585,175.662047 244.14429,175.472632 C243.777994,175.283217 243.367131,175.18851 242.912396,175.18851 C242.456267,175.18851 242.0461,175.283217 241.679805,175.472632 C241.31351,175.662047 241.001532,175.922493 240.743872,176.253969 C240.486908,176.585446 240.28844,176.976114 240.150557,177.425975 C240.011978,177.875836 239.94234,178.361212 239.94234,178.882103 M239.289136,178.882103 C239.289136,178.242827 239.377577,177.654387 239.55585,177.118175 C239.734123,176.581267 239.982033,176.117479 240.298886,175.727507 C240.615738,175.336142 240.996657,175.031128 241.441643,174.80968 C241.887326,174.588928 242.377577,174.478203 242.912396,174.478203 C243.446518,174.478203 243.936072,174.588928 244.381755,174.80968 C244.827437,175.031128 245.208357,175.336142 245.525209,175.727507 C245.842061,176.117479 246.089276,176.581267 246.267549,177.118175 C246.445822,177.654387 246.534958,178.242827 246.534958,178.882103 C246.534958,179.521379 246.445822,180.111212 246.267549,180.651602 C246.089276,181.191992 245.842061,181.657869 245.525209,182.048538 C245.208357,182.439206 244.827437,182.743524 244.381755,182.960097 C243.936072,183.177368 243.446518,183.285306 242.912396,183.285306 C242.377577,183.285306 241.887326,183.177368 241.441643,182.960097 C240.996657,182.743524 240.615738,182.439206 240.298886,182.048538 C239.982033,181.657869 239.734123,181.191992 239.55585,180.651602 C239.377577,180.111212 239.289136,179.521379 239.289136,178.882103" id="Fill-76" fill="#221F20" mask="url(#mask-4)"></path>
                <path d="M0,169.436142 L247.956128,169.436142" id="Stroke-77" stroke="#221F20" stroke-width="0.939" mask="url(#mask-4)"></path>
            </g>
        </g>
    </g>
</svg>