<?xml version="1.0" encoding="UTF-8" standalone="no"?>
<svg width="55px" height="56px" viewBox="0 0 55 56" version="1.1" xmlns="http://www.w3.org/2000/svg" xmlns:xlink="http://www.w3.org/1999/xlink">
    <!-- Generator: Sketch 3.6.1 (26313) - http://www.bohemiancoding.com/sketch -->
    <title>Group 2 Copy</title>
    <desc>Created with Sketch.</desc>
    <defs></defs>
    <g id="Welcome" stroke="none" stroke-width="1" fill="none" fill-rule="evenodd">
        <g id="Desktop-HD-Copy-13" transform="translate(-1039.000000, -2262.000000)">
            <g id="Group-15" transform="translate(0.000000, 2137.000000)">
                <g id="Group-2-Copy" transform="translate(1039.000000, 125.016362)">
                    <rect id="Rectangle-54" fill="#D0D0D0" x="6" y="6" width="49" height="49" rx="5"></rect>
                    <path d="M44.1,0 L4.9,0 C2.205,0 0,2.205 0,4.9 L0,44.1 C0,46.795 2.205,49 4.9,49 L44.1,49 C46.795,49 49,46.795 49,44.1 L49,4.9 C49,2.205 46.795,0 44.1,0 L44.1,0 Z M26.95,34.79 C24.99,34.79 23.03,34.055 21.805,32.585 L19.355,40.425 L19.11,40.915 C18.62,41.65 17.885,42.14 16.905,42.14 C15.435,42.14 14.21,40.915 14.21,39.445 L14.21,39.2 L14.21,39.2 L14.455,38.71 L18.865,24.99 C18.865,24.99 18.375,23.52 18.375,21.315 C18.375,17.15 20.58,15.925 22.54,15.925 C24.255,15.925 25.97,16.66 25.97,19.11 C25.97,22.295 23.765,24.01 23.765,26.46 C23.765,28.175 25.235,29.645 26.95,29.645 C32.585,29.645 34.79,25.235 34.79,21.315 C34.79,15.925 30.135,11.515 24.5,11.515 C18.865,11.515 14.21,15.925 14.21,21.315 C14.21,23.03 14.7,24.5 15.435,25.97 C15.68,26.46 15.68,26.705 15.68,27.195 C15.68,28.665 14.7,29.645 13.23,29.645 C12.25,29.645 11.515,29.155 11.025,28.42 C9.8,26.215 9.065,23.765 9.065,21.07 C9.065,12.985 15.925,6.37 24.255,6.37 C32.585,6.37 39.445,12.985 39.445,21.07 C39.69,27.93 35.77,34.79 26.95,34.79 L26.95,34.79 Z" id="Shape" fill="#CC3333"></path>
                    <path d="M26.95,34.79 C24.99,34.79 23.03,34.055 21.805,32.585 L19.355,40.425 L19.11,40.915 C18.62,41.65 17.885,42.14 16.905,42.14 C15.435,42.14 14.21,40.915 14.21,39.445 L14.21,39.2 L14.21,39.2 L14.455,38.71 L18.865,24.99 C18.865,24.99 18.375,23.52 18.375,21.315 C18.375,17.15 20.58,15.925 22.54,15.925 C24.255,15.925 25.97,16.66 25.97,19.11 C25.97,22.295 23.765,24.01 23.765,26.46 C23.765,28.175 25.235,29.645 26.95,29.645 C32.585,29.645 34.79,25.235 34.79,21.315 C34.79,15.925 30.135,11.515 24.5,11.515 C18.865,11.515 14.21,15.925 14.21,21.315 C14.21,23.03 14.7,24.5 15.435,25.97 C15.68,26.46 15.68,26.705 15.68,27.195 C15.68,28.665 14.7,29.645 13.23,29.645 C12.25,29.645 11.515,29.155 11.025,28.42 C9.8,26.215 9.065,23.765 9.065,21.07 C9.065,12.985 15.925,6.37 24.255,6.37 C32.585,6.37 39.445,12.985 39.445,21.07 C39.69,27.93 35.77,34.79 26.95,34.79 L26.95,34.79 Z" id="Path" fill="#FFFFFF"></path>
                </g>
            </g>
        </g>
    </g>
</svg>