<?xml version="1.0" encoding="utf-8"?>
<!-- Generator: Adobe Illustrator 19.2.1, SVG Export Plug-In . SVG Version: 6.00 Build 0)  -->
<svg version="1.1" id="Layer_1" xmlns="http://www.w3.org/2000/svg" xmlns:xlink="http://www.w3.org/1999/xlink" x="0px" y="0px"
	 viewBox="0 0 163 110" style="enable-background:new 0 0 163 110;" xml:space="preserve">
<style type="text/css">
	.st0{fill:#FFFFFF;}
</style>
<title>Play</title>
<desc>Created with Sketch.</desc>
<g id="Welcome">
	<g id="Desktop-HD-Copy-6" transform="translate(-1028.000000, -1603.000000)">
		<g id="Group" transform="translate(-34.000000, 754.000000)">
			<g id="Group-7" transform="translate(919.000000, 831.000000)">
				<path id="Play" class="st0" d="M166.7,30.6c-9.6,15.1-19.9,35.8-22.8,45.8c-1.6,5.9-0.6,9.2,1,10.9c0.8,0.8,1.3,0.8,1.8-0.3
					c3.9-9.1,7.1-16.4,10.2-22.4c1.9,1.1,4.3,1.5,6.8,1.1c14.4-2.7,26.3-11,31.8-19.6c3.7-5.8,5.6-12.2,3.3-18.8
					c-2.6-7.6-7.5-9.4-13.1-9.1c-7.5,0.3-15.7,5-24.9,5.9c-1.4,0.1-1.7,0.8-1.1,2C160.8,28.2,162.9,30.1,166.7,30.6L166.7,30.6z
					 M160.1,58.3c3.3-6.2,6.4-11.2,9.2-16.3c3.1-5.3,4.2-9.1,4.2-12.1c7.3-2.1,18.3-7.8,20.6-1.8C197,35.8,184.7,53.7,160.1,58.3
					L160.1,58.3z M201.5,64.5c9.8-6.4,22.1-19.6,25.5-33.1c1.3-5.2,0.7-9.2-2.5-12.1c-1.5-1.4-3.1-1.2-4.7,0.5
					C208.6,31.5,196,51.5,192,70.6c-2.5,11.9,1.5,17.2,9.1,17.4c8.8,0.2,16.8-8.9,18.4-12.2c1.2-2.6,1.6-5.1,1.1-6.8
					c-0.4-1.5-1.6-1.4-2.4,0c-4.3,8.5-12,16.4-17.3,15.9C195.9,84.5,197.1,75.3,201.5,64.5L201.5,64.5z M203.5,59.8
					c0.8-1.8,1.7-3.5,2.6-5.3c7.6-14.1,15.7-26.3,17.2-25.4C224.7,30,218.6,47.6,203.5,59.8L203.5,59.8z M251.7,50.8
					c0.2-4.3-2-7.9-6.7-7.9c-5.5,0-14.2,4.9-23.1,17.9c-9.1,13.3-7,27.3,3.2,27.3c5.3,0,10.2-4.1,13.8-8.6c0,5.2,3.1,8.7,9,9
					c6.1,0.3,13-5.7,15.8-11.8c1.4-3.1,1.4-5.8,1-6.8c-0.4-1-1.2-0.9-1.8,0.1c-3.9,7.6-9.9,15.1-14.4,15.3
					c-3.7,0.2-3.6-4.5-0.9-10.7c2.6-5.8,8.1-14.1,10.6-19c2.6-5.5,1.8-10.2,0.1-12.2c-0.8-1-1.6-0.8-2.6,0.7
					C254.4,45.8,253.1,48.2,251.7,50.8L251.7,50.8z M242.1,67.8c-5.6,9.7-11.3,16.7-15.8,16.6c-4.3-0.1-2.9-9.8,3-19.2
					c6.1-9.8,14.1-16.9,17.6-16.6C250,48.9,249.1,55.7,242.1,67.8L242.1,67.8z M303.3,75.9c1.9-2.9,2.2-5.4,2-6.4
					c-0.2-1.1-1.2-1-1.8-0.2c-4.4,6-10.9,12.3-19.5,16.9c4.6-10.7,11.3-23.9,14.6-30.2c2.9-5.6,2-10.3,0.4-12.3
					c-1-0.9-1.8-0.7-2.8,0.8c-3.9,5.6-8.6,15.5-13.3,23.6c-5.6,9.6-11.1,16.6-15.4,16.3c-2.5-0.2-2.8-4.1-0.6-9.5
					c2.1-5.2,4.5-9.7,8.5-16.1c4.1-6.5,4.7-11.1,2.1-14.6c-0.8-1.1-1.9-1.2-2.8,0c-7.1,9.9-12.5,20.8-15,27.8
					c-2.5,7.3-2.3,15.3,5.6,15.9c4.4,0.3,8.6-2.5,12-6.1c-1.2,2.6-2.3,5.4-3.4,7.9c-10.9,4.3-20.2,10.9-23.5,20.8
					c-2.2,6.5,0,10.3,2.2,13.6c2.1,3.1,4.2,3.1,6.3,2.3c9.1-3.5,16.9-21.2,23.1-36C291.3,86.9,299,82.7,303.3,75.9L303.3,75.9z
					 M272.3,94.5c-6.8,16.2-15.8,28.2-17.3,26.1C253,117.8,258,102.7,272.3,94.5L272.3,94.5z"/>
			</g>
		</g>
	</g>
</g>
</svg>
