<?xml version="1.0" encoding="utf-8"?>
<!-- Generator: Adobe Illustrator 19.2.1, SVG Export Plug-In . SVG Version: 6.00 Build 0)  -->
<svg version="1.1" id="Layer_1" xmlns="http://www.w3.org/2000/svg" xmlns:xlink="http://www.w3.org/1999/xlink" x="0px" y="0px"
	 viewBox="0 0 177 76" style="enable-background:new 0 0 177 76;" xml:space="preserve">
<style type="text/css">
	.st0{enable-background:new    ;}
	.st1{fill:#FFFFFF;}
</style>
<title>Work</title>
<desc>Created with Sketch.</desc>
<g id="Welcome">
	<g id="Desktop-HD-Copy-6" transform="translate(-299.000000, -2114.000000)">
		<g id="Group" transform="translate(-34.000000, 754.000000)">
			<g class="st0">
				<path class="st1" d="M340.4,1434.1c-0.8,1.2-1.9,1.8-3.3,0.6c-3.9-3.4-4.7-7.6-3-15.2c4-16.7,12.9-42,18.3-52.4
					c0.9-1.6,2-1.8,2.8-0.4c1.9,3.2,2.1,7.1-1.1,15.6c-3.6,9.9-9,24.2-13.8,39.8c10.2-16.7,27.2-39.8,38.5-53.6
					c0.8-0.9,1.9-1.2,2.8,0.1c2.2,3.2,2.8,5.9,0,14.3c-3.5,10.3-8.1,23.8-12.3,39.7c11.1-18.2,32.5-46.4,42.1-56.8
					c1.3-1.3,2.4-1.1,2.6,0.4c0.7,3.8-0.8,8.6-6.4,16c-8,10.6-24.3,30.8-37.6,51.3c-0.9,1.3-1.9,1.9-3.3,0.5
					c-3.7-3.4-5.1-7.4-3.4-15.2c1.8-8.1,5.5-20.2,9.1-30.6C362.6,1401.3,349.8,1419.2,340.4,1434.1z"/>
				<path class="st1" d="M451.8,1435c-8.5-0.4-11.9-7.8-9.1-16.8c2.2-7.4,9.1-15.5,13.8-20.9c-4.9,3.2-9.8,4.3-13.3,4.3
					c-3.1,5-7.6,8.7-13.6,8.9c-2.2,9.3-9,20.7-17.2,23.3c-4,1.3-9.7,1.1-14-4.7c-4.7-6.5-3.1-16.1,1.7-24.8
					c4.2-7.6,11.1-13.8,17.7-14.3c3.3-0.3,5.1,0.8,7.4,3.7c2.6,3.4,5.8,4.1,5.3,12.1c0,0.5-0.2,1.1-0.2,1.8c3.1-0.5,6.3-2.6,8.6-6.8
					c-8.1-3.5,2.6-18,7-18.1c3.9-0.1,1.9,7.9-0.3,13.8c3.9-0.6,7.7-2.4,11.9-5.3c1.4-1,2.4-1.3,3.3-0.2c2,2.3,4.7,7.5,1.4,11.2
					c-5.2,5.8-10.5,13.3-12.4,19.1c-2.1,6.1-0.8,10.3,2.8,10.6c4.4,0.3,10-7,13.5-15.1c0.4-1,1.2-1.2,1.6-0.2c0.5,1.3,1,4.3-0.3,7.2
					C464.2,1430.2,457.8,1435.3,451.8,1435z M415.1,1398.2c-3,2.5-6,6.2-8.5,10.3c-4.7,8.4-6.3,18.4-3.4,20.9
					c2.9,2.5,9.7-1.4,15.2-11.4c1.8-3.3,3.1-6.3,3.9-9C418,1406.6,415.2,1402.2,415.1,1398.2z M423.8,1398.1
					c-0.4-3.6-2.9-2.8-3.3,0.4c-0.3,2.8,0.7,5.5,2.8,7.3C423.9,1402.6,424,1400,423.8,1398.1z"/>
				<path class="st1" d="M494.4,1388.6c4.2-1.4,6.8,0.2,9,4.8c2.1,4.3,1.8,8.9-2.3,12.9c-3.7,3.6-8.4,6.8-15.3,8.9
					c0.4,9,3.5,15.3,7.7,15.7c4.5,0.4,10.6-8,13.9-14.9c0.7-1.3,1.7-1.4,2.2-0.1c0.5,1.3,0.3,4-1.3,6.7c-2.6,4.6-7.7,11.7-16.4,11.5
					c-7.7-0.1-14.2-6.4-14-21.2c0-2,0.2-2.3,2.3-3c13.6-4.5,20.9-14.1,19.2-16.9c-1.2-2-6-0.8-11.9,3.7c-8.2,6.3-13.2,16-21.7,36.2
					c-0.3,0.9-1.2,1.1-2,0.2c-1.6-1.9-2.2-5.4-0.1-12.1c3.1-10,21.3-46.2,31.1-59.5c1-1.3,2.1-1.4,2.8-0.1c1.6,3.3,1.4,7.7-3.2,15.7
					c-2.6,4.5-6.9,12.2-9.9,17.6C488.2,1391.4,491.6,1389.5,494.4,1388.6z"/>
			</g>
		</g>
	</g>
</g>
</svg>
