<?xml version="1.0" encoding="UTF-8" standalone="no"?>
<svg width="233px" height="85px" viewBox="0 0 233 85" version="1.1" xmlns="http://www.w3.org/2000/svg" xmlns:xlink="http://www.w3.org/1999/xlink">
    <!-- Generator: Sketch 3.7 (28169) - http://www.bohemiancoding.com/sketch -->
    <title>Explore</title>
    <desc>Created with Sketch.</desc>
    <defs></defs>
    <g id="Welcome" stroke="none" stroke-width="1" fill="none" fill-rule="evenodd">
        <g id="Desktop-HD-Copy-6" transform="translate(-247.000000, -1116.000000)" fill="#FFFFFF">
            <g id="Group" transform="translate(-34.000000, 754.000000)">
                <path d="M304.8,371.5 C296.4,384.5 286.4,403.1 281.8,415.4 C280.8,418.1 280.8,419.4 281.7,421.1 C282.4,422.4 283,423.9 283.8,424.8 C285,426.3 286.1,426.3 288,425.8 C293.6,424.3 304.5,421.7 310.1,421.8 C311.3,421.8 311.4,421.2 311.1,420.3 C310,417.3 307.5,415.7 302.6,415.9 C298.5,416.1 291.9,417.5 287.1,419 C289.2,414.3 291.9,408.8 294.8,403.2 C300.4,401.8 307.9,400.4 313.3,400.4 C314.6,400.4 314.6,399.8 314.3,398.9 C313.3,395.8 311.1,394.2 306.1,394.4 C304.3,394.5 301.7,394.7 299,395.2 C303.9,386.3 308.8,377.6 312.8,371.6 C318.9,370.6 325.9,368.8 333.1,368.9 C334.3,369.1 334.5,368.4 334.2,367.6 C333,364.3 330.8,362.6 326.6,362.7 C321,362.8 310,365.7 301.7,365.2 C300.7,365.1 300.4,365.5 300.6,366.4 C301.2,368.5 302.3,370.5 304.8,371.5 L304.8,371.5 Z M332.2,406 C328.5,409 325.2,411.7 322.8,414.3 C319.1,418.3 317.1,421.3 316.8,424.7 C316.6,426.4 318.3,425.9 319.1,425 C323.1,420 328,415.4 332.9,411.3 C333.1,412.5 333.2,413.6 333.3,414.2 C334.5,422.5 337.3,425.6 342.6,425.6 C347.6,425.6 352.8,421 355.8,415.1 C357.2,412.4 357.2,410 356.7,408.8 C356.4,408 355.6,408.1 355.2,409 C352.3,415.1 348,422.4 344.3,422.2 C343.1,422.1 341.9,420.7 341.1,416.7 C340.6,414.1 340.1,410 339.4,405.8 C344.1,402 348.1,398.8 350.3,396.3 C353.7,392.4 355.7,389.5 355.7,386.2 C355.7,384.6 354.7,384.7 353.7,386 C349.5,391.4 344.1,396.3 338.7,400.7 C338.3,397.5 337.8,394.5 337.3,392.1 C336.4,387.7 335.1,385.7 332,385.1 C327,384.2 321.2,389.3 319.3,394.1 C318.6,395.9 318.2,398.1 318.7,399.5 C319,400.3 319.9,400.2 320.3,399.3 C323.3,392.6 327.3,388.9 328.5,389 C329.5,389.1 331.1,398.5 332.2,406 L332.2,406 Z M374.8,423.6 C378.6,421.3 382.3,416.5 385.3,409.9 C389,401.7 391.2,392.8 386.4,387.7 C382.1,383.2 376.2,386 371.8,389.8 C371.9,388.1 371.7,386.6 371.2,385.3 C370.7,384.1 369.8,383.9 368.8,385.2 C362.5,393.6 345.7,425.3 342.7,435 C340.8,441.1 341.3,443.9 342.8,446 C343.4,446.9 344.1,446.7 344.5,445.8 C349.3,434.7 354.4,424.5 359.1,415.9 C359.4,418.4 360.4,420.7 362.5,422.6 C366,425.8 370.2,426.7 376.6,426.3 C383.8,425.8 390.6,422.5 394.4,415.6 C396.1,412.5 395.9,409.9 395.7,409 C395.5,408 394.4,407.6 393.8,409 C390.6,415.8 384.6,423 374.8,423.6 L374.8,423.6 Z M364.7,405.9 C365.9,403.8 367,402 368.1,400.2 C372.8,392.5 379,387.5 381.4,388.7 C383.9,389.9 382.8,398.2 378.9,406.2 C374.2,415.8 367.7,423.1 364.5,420.5 C361.7,418.2 362.2,412.2 364.7,405.9 L364.7,405.9 Z M402,404 C410.9,398.2 422.1,386.2 425.2,373.9 C426.4,369.2 425.8,365.5 422.9,362.9 C421.5,361.6 420.1,361.8 418.6,363.4 C408.4,374 397,392.1 393.3,409.5 C391,420.3 394.7,425.1 401.6,425.3 C409.6,425.5 416.9,417.2 418.3,414.2 C419.4,411.8 419.8,409.6 419.3,408 C418.9,406.6 417.8,406.7 417.1,408 C413.2,415.7 406.2,422.9 401.4,422.5 C396.9,422.1 398,413.8 402,404 L402,404 Z M403.8,399.7 C404.5,398.1 405.3,396.5 406.2,394.9 C413.1,382.1 420.5,371 421.8,371.8 C423.1,372.6 417.5,388.6 403.8,399.7 L403.8,399.7 Z M480.8,415.5 C482,412.9 481.6,410.2 481.1,409 C480.7,408.1 480,408.3 479.6,409.2 C476.4,416.5 471.3,423.2 467.3,422.9 C464.1,422.7 462.9,418.8 464.8,413.3 C466.6,408 471.4,401.2 476.1,395.9 C479.1,392.5 476.6,387.8 474.8,385.7 C474,384.7 473.1,385 471.8,385.9 C468,388.5 464.5,390.2 461,390.7 C463,385.4 464.8,378.1 461.3,378.2 C457.3,378.3 447.5,391.5 454.9,394.7 C452.8,398.5 449.9,400.4 447.1,400.9 C447.1,400.3 447.3,399.8 447.3,399.3 C447.8,392 444.9,391.4 442.5,388.3 C440.4,385.6 438.8,384.6 435.8,384.9 C429.8,385.4 423.5,391 419.7,397.9 C415.4,405.8 413.9,414.5 418.2,420.4 C422.1,425.7 427.3,425.9 430.9,424.7 C438.3,422.3 444.5,412 446.5,403.5 C452,403.3 456.1,399.9 458.9,395.4 C462.1,395.4 466.5,394.4 471,391.5 C466.8,396.4 460.5,403.8 458.5,410.5 C456,418.7 459.1,425.4 466.8,425.8 C472.3,426.1 478.1,421.5 480.8,415.5 L480.8,415.5 Z M440.9,399.3 C439,397.7 438.1,395.2 438.4,392.7 C438.8,389.8 441,389 441.4,392.3 C441.6,394 441.5,396.4 440.9,399.3 L440.9,399.3 Z M440,402.2 C439.3,404.7 438.1,407.4 436.5,410.4 C431.5,419.5 425.3,423.1 422.7,420.8 C420.1,418.5 421.5,409.4 425.8,401.8 C428,398 430.8,394.7 433.5,392.4 C433.6,396 436.1,400 440,402.2 L440,402.2 Z M487.7,406.9 C494.7,412.6 501.4,410 506.3,404 C510.5,398.9 511.3,392.8 509.5,390.4 C507.9,388.2 506.1,386.7 503.6,385.2 C498.6,382.3 488.4,387.5 481.9,400.4 C475.4,413.3 479.8,425.8 492.5,425.6 C500.2,425.5 507.9,420.9 512.1,414.8 C513.9,412.2 514.2,409.4 513.8,408.6 C513.4,407.7 512.6,407.7 512.1,408.5 C507.8,415.1 500.5,423.1 492.2,422.7 C486.9,422.4 484.5,416.1 487.7,406.9 L487.7,406.9 Z M488.6,404.7 C488.8,404.2 489.1,403.6 489.4,403 C494.1,393.5 502.4,387.5 504.5,389.2 C505.9,390.3 503.7,395.5 500.5,399.7 C497.6,403.5 493.5,407.8 488.6,404.7 L488.6,404.7 Z" id="Explore"></path>
            </g>
        </g>
    </g>
</svg>