<?xml version="1.0" encoding="UTF-8" standalone="no"?>
<svg width="111px" height="108px" viewBox="0 0 111 108" version="1.1" xmlns="http://www.w3.org/2000/svg" xmlns:xlink="http://www.w3.org/1999/xlink">
    <!-- Generator: Sketch 3.6.1 (26313) - http://www.bohemiancoding.com/sketch -->
    <title>Fill 1</title>
    <desc>Created with Sketch.</desc>
    <defs>
        <filter x="-50%" y="-50%" width="200%" height="200%" filterUnits="objectBoundingBox" id="filter-1">
            <feOffset dx="0" dy="2" in="SourceAlpha" result="shadowOffsetOuter1"></feOffset>
            <feGaussianBlur stdDeviation="2" in="shadowOffsetOuter1" result="shadowBlurOuter1"></feGaussianBlur>
            <feColorMatrix values="0 0 0 0 0   0 0 0 0 0   0 0 0 0 0  0 0 0 0.35 0" in="shadowBlurOuter1" type="matrix" result="shadowMatrixOuter1"></feColorMatrix>
            <feMerge>
                <feMergeNode in="shadowMatrixOuter1"></feMergeNode>
                <feMergeNode in="SourceGraphic"></feMergeNode>
            </feMerge>
        </filter>
        <filter x="-50%" y="-50%" width="200%" height="200%" filterUnits="objectBoundingBox" id="filter-2">
            <feOffset dx="0" dy="1" in="SourceAlpha" result="shadowOffsetOuter1"></feOffset>
            <feGaussianBlur stdDeviation="1" in="shadowOffsetOuter1" result="shadowBlurOuter1"></feGaussianBlur>
            <feColorMatrix values="0 0 0 0 0   0 0 0 0 0   0 0 0 0 0  0 0 0 0.149459352 0" in="shadowBlurOuter1" type="matrix" result="shadowMatrixOuter1"></feColorMatrix>
            <feMerge>
                <feMergeNode in="shadowMatrixOuter1"></feMergeNode>
                <feMergeNode in="SourceGraphic"></feMergeNode>
            </feMerge>
        </filter>
    </defs>
    <g id="Welcome" stroke="none" stroke-width="1" fill="none" fill-rule="evenodd" filter="url(#filter-1)">
        <g id="Desktop-HD-Copy-6" transform="translate(-909.000000, -1583.000000)" fill="#FFFFFF">
            <g id="Group" transform="translate(-34.000000, 754.000000)">
                <g id="Group-7" transform="translate(919.000000, 831.000000)">
                    <path d="M59.4294261,57.4415212 C56.4509458,60.21995 56.2873392,64.8881306 59.0602624,67.8692955 C61.8331856,70.8515108 66.4938779,71.0195821 69.4702607,68.2411533 C72.448741,65.4648253 72.6144452,60.7955943 69.841522,57.8112781 C67.0696476,54.8290628 62.4068576,54.6651933 59.4294261,57.4415212 M84.402515,38.1921041 L110.37717,13.9152539 L109.444822,12.9110279 L120.958117,2.13162821e-14 L131,10.7996321 L117.505597,21.5803561 L116.391813,20.3817976 L90.4161087,44.6586477 C95.7050087,53.3468839 98.6488799,60.8460157 90.9205625,68.0541739 C86.931077,71.775903 81.0989189,71.1288284 76.8713647,73.9072573 C70.4477056,78.1310994 74.363778,87.7069622 68.9385391,92.766959 C58.8651929,102.163196 47.4546769,97.5317806 38.0735128,87.4433003 C28.6933974,77.3537695 24.89164,65.6276444 34.9670837,56.2293069 C40.3912738,51.1714109 47.4651645,54.148374 54.3135716,49.6461638 C58.5390283,46.8666845 57.151518,39.7436124 61.1399548,36.0218833 C68.8651258,28.8168764 76.1267446,32.2896498 84.402515,38.1921041" id="Fill-1" filter="url(#filter-2)"></path>
                </g>
            </g>
        </g>
    </g>
</svg>