<?xml version="1.0" encoding="UTF-8" standalone="no"?>
<svg width="79px" height="75px" viewBox="0 0 79 75" version="1.1" xmlns="http://www.w3.org/2000/svg" xmlns:xlink="http://www.w3.org/1999/xlink">
    <!-- Generator: Sketch 3.8.3 (29802) - http://www.bohemiancoding.com/sketch -->
    <title>Shape</title>
    <desc>Created with Sketch.</desc>
    <defs>
        <path d="M252.892339,1389 L202.108371,1389 L192,1406.56558 L192,1412.65744 C192,1415.68278 193.728867,1418.30909 196.250103,1419.61409 L196.250103,1455.22449 L234.415114,1455.22449 L234.415114,1416.33243 C235.736437,1418.80468 238.340743,1420.48952 241.329873,1420.48952 C244.325393,1420.48952 246.929699,1418.80468 248.251023,1416.33243 C249.566666,1418.80468 252.170972,1420.48952 255.165782,1420.48952 L255.165782,1420.48952 L255.165782,1455.22449 L258.749897,1455.22449 L258.749897,1419.61409 C261.271843,1418.30909 263,1415.68278 263,1412.65744 L263,1406.56558 L252.892339,1389 L252.892339,1389 Z M208.186742,1407.40267 L213.191582,1392.17089 L221.147211,1392.17089 L219.490055,1407.31463 L219.490055,1411.66911 C219.490055,1414.78533 216.95746,1417.31792 213.841238,1417.31792 C210.725017,1417.31792 208.192422,1414.78533 208.192422,1411.66911 L208.192422,1407.40267 L208.186742,1407.40267 L208.186742,1407.40267 Z M231.04116,1432.79466 L199.834928,1432.79466 L199.834928,1420.48952 C202.830448,1420.48952 205.434044,1418.80468 206.750398,1416.33243 C208.071721,1418.80468 210.676027,1420.48952 213.670837,1420.48952 C216.659967,1420.48952 219.264273,1418.80468 220.586306,1416.33243 C221.901949,1418.80468 224.511935,1420.48952 227.501065,1420.48952 C228.778368,1420.48952 229.97828,1420.17002 231.04116,1419.62474 L231.04116,1432.79466 L231.04116,1432.79466 L231.04116,1432.79466 Z M246.808998,1411.66911 C246.808998,1414.78533 244.277113,1417.31792 241.160182,1417.31792 C238.04396,1417.31792 235.511365,1414.78533 235.511365,1411.66911 L235.511365,1407.31463 L233.854209,1392.17089 L241.809838,1392.17089 L246.814678,1407.40267 L246.814678,1411.66911 L246.808998,1411.66911 L246.808998,1411.66911 Z" id="path-1"></path>
        <filter x="-50%" y="-50%" width="200%" height="200%" filterUnits="objectBoundingBox" id="filter-2">
            <feOffset dx="0" dy="2" in="SourceAlpha" result="shadowOffsetOuter1"></feOffset>
            <feGaussianBlur stdDeviation="2" in="shadowOffsetOuter1" result="shadowBlurOuter1"></feGaussianBlur>
            <feColorMatrix values="0 0 0 0 0   0 0 0 0 0   0 0 0 0 0  0 0 0 0.5 0" type="matrix" in="shadowBlurOuter1"></feColorMatrix>
        </filter>
    </defs>
    <g id="Welcome" stroke="none" stroke-width="1" fill="none" fill-rule="evenodd">
        <g id="Desktop-HD-Copy-12" transform="translate(-154.000000, -2334.000000)">
            <g id="Group" transform="translate(-34.000000, 947.000000)">
                <g id="Shape">
                    <use fill="black" fill-opacity="1" filter="url(#filter-2)" xlink:href="#path-1"></use>
                    <use fill="#FFFFFF" fill-rule="evenodd" xlink:href="#path-1"></use>
                </g>
            </g>
        </g>
    </g>
</svg>