<?xml version="1.0" encoding="UTF-8" standalone="no"?>
<svg width="80px" height="71px" viewBox="0 0 80 71" version="1.1" xmlns="http://www.w3.org/2000/svg" xmlns:xlink="http://www.w3.org/1999/xlink">
    <!-- Generator: Sketch 3.8.3 (29802) - http://www.bohemiancoding.com/sketch -->
    <title>Shape</title>
    <desc>Created with Sketch.</desc>
    <defs>
        <path d="M67.3,0.9 L4.7,0.9 C2.4,0.9 0.5,2.8 0.5,5.1 L0.5,44.4 C0.5,46.7 2.4,48.6 4.7,48.6 L29.4,48.6 C29.8,48.6 30.1,48.9 30.1,49.3 L30.1,53.7 C30.1,54.1 29.8,54.4 29.5,54.4 C22.2,55.1 17,56.7 17,58.6 C17,61 25.5,63 36,63 C46.5,63 55,61 55,58.6 C55,56.7 49.8,55.1 42.5,54.4 C42.1,54.4 41.9,54.1 41.9,53.7 L41.9,49.3 C41.9,48.9 42.2,48.6 42.6,48.6 L67.3,48.6 C69.6,48.6 71.5,46.7 71.5,44.4 L71.5,5.2 C71.5,2.8 69.6,0.9 67.3,0.9 L67.3,0.9 Z M66.5,41.9 C66.5,42.9 65.7,43.7 64.7,43.7 L7.3,43.7 C6.3,43.7 5.5,42.9 5.5,41.9 L5.5,7.7 C5.5,6.7 6.3,5.9 7.3,5.9 L64.8,5.9 C65.8,5.9 66.6,6.7 66.6,7.7 L66.6,41.9 L66.5,41.9 Z" id="path-1"></path>
        <filter x="-50%" y="-50%" width="200%" height="200%" filterUnits="objectBoundingBox" id="filter-2">
            <feOffset dx="0" dy="2" in="SourceAlpha" result="shadowOffsetOuter1"></feOffset>
            <feGaussianBlur stdDeviation="2" in="shadowOffsetOuter1" result="shadowBlurOuter1"></feGaussianBlur>
            <feColorMatrix values="0 0 0 0 0   0 0 0 0 0   0 0 0 0 0  0 0 0 0.5 0" type="matrix" in="shadowBlurOuter1"></feColorMatrix>
        </filter>
    </defs>
    <g id="Welcome" stroke="none" stroke-width="1" fill="none" fill-rule="evenodd">
        <g id="Desktop-HD-Copy-12" transform="translate(-529.000000, -2336.000000)">
            <g id="Group" transform="translate(-34.000000, 947.000000)">
                <g transform="translate(567.000000, 1391.000000)" id="Shape">
                    <g>
                        <use fill="black" fill-opacity="1" filter="url(#filter-2)" xlink:href="#path-1"></use>
                        <use fill="#FFFFFF" fill-rule="evenodd" xlink:href="#path-1"></use>
                    </g>
                </g>
            </g>
        </g>
    </g>
</svg>