<?xml version="1.0" encoding="UTF-8" standalone="no"?>
<svg width="160px" height="69px" viewBox="0 0 160 69" version="1.1" xmlns="http://www.w3.org/2000/svg" xmlns:xlink="http://www.w3.org/1999/xlink">
    <!-- Generator: Sketch 3.8.3 (29802) - http://www.bohemiancoding.com/sketch -->
    <title>Group 11</title>
    <desc>Created with Sketch.</desc>
    <defs>
        <path d="M55.7568405,2.06057393e-13 L9.25585786,2.06057393e-13 L4.97379915e-14,15.992539 L4.97379915e-14,21.5388602 C4.97379915e-14,24.2932744 1.5830592,26.6843982 3.89166012,27.8725262 L3.89166012,60.2939407 L38.8379358,60.2939407 L38.8379358,24.8847527 C40.0478222,27.1356024 42.4324879,28.6695674 45.1695225,28.6695674 C47.9124083,28.6695674 50.2970741,27.1356024 51.5069604,24.8847527 C52.7116457,27.1356024 55.0963114,28.6695674 57.8385471,28.6695674 L57.8385471,28.6695674 L57.8385471,60.2939407 L61.1203881,60.2939407 L61.1203881,27.8725262 C63.4296391,26.6843982 65.0120482,24.2932744 65.0120482,21.5388602 L65.0120482,15.992539 L55.7568405,2.06057393e-13 L55.7568405,2.06057393e-13 Z M14.821595,16.7546734 L19.4043401,2.88693126 L26.6890129,2.88693126 L25.1716165,16.6745167 L25.1716165,20.6390374 C25.1716165,23.476194 22.8526136,25.7819898 19.9992063,25.7819898 C17.1457989,25.7819898 14.826796,23.476194 14.826796,20.6390374 L14.826796,16.7546734 L14.821595,16.7546734 L14.821595,16.7546734 Z M35.7485324,39.8727483 L7.17415126,39.8727483 L7.17415126,28.6695674 C9.917037,28.6695674 12.3010526,27.1356024 13.5063881,24.8847527 C14.7162744,27.1356024 17.1009402,28.6695674 19.8431758,28.6695674 C22.5802104,28.6695674 24.9648762,27.1356024 26.1754126,24.8847527 C27.3800979,27.1356024 29.7699647,28.6695674 32.5069993,28.6695674 C33.6765777,28.6695674 34.7752923,28.3786765 35.7485324,27.8822226 L35.7485324,39.8727483 L35.7485324,39.8727483 L35.7485324,39.8727483 Z M50.1865525,20.6390374 C50.1865525,23.476194 47.8681996,25.7819898 45.0141422,25.7819898 C42.1607349,25.7819898 39.8417319,23.476194 39.8417319,20.6390374 L39.8417319,16.6745167 L38.3243355,2.88693126 L45.6090084,2.88693126 L50.1917535,16.7546734 L50.1917535,20.6390374 L50.1865525,20.6390374 L50.1865525,20.6390374 Z" id="path-1"></path>
        <filter x="-50%" y="-50%" width="200%" height="200%" filterUnits="objectBoundingBox" id="filter-2">
            <feOffset dx="0" dy="2" in="SourceAlpha" result="shadowOffsetOuter1"></feOffset>
            <feGaussianBlur stdDeviation="2" in="shadowOffsetOuter1" result="shadowBlurOuter1"></feGaussianBlur>
            <feColorMatrix values="0 0 0 0 0   0 0 0 0 0   0 0 0 0 0  0 0 0 0.5 0" type="matrix" in="shadowBlurOuter1"></feColorMatrix>
        </filter>
        <path d="M61.6240964,0.819402985 L4.30361446,0.819402985 C2.19759036,0.819402985 0.457831325,2.54925373 0.457831325,4.64328358 L0.457831325,40.4238806 C0.457831325,42.5179104 2.19759036,44.2477612 4.30361446,44.2477612 L26.9204819,44.2477612 C27.286747,44.2477612 27.5614458,44.5208955 27.5614458,44.8850746 L27.5614458,48.8910448 C27.5614458,49.2552239 27.286747,49.5283582 27.0120482,49.5283582 C20.3277108,50.1656716 15.5662651,51.6223881 15.5662651,53.3522388 C15.5662651,55.5373134 23.3493976,57.358209 32.9638554,57.358209 C42.5783133,57.358209 50.3614458,55.5373134 50.3614458,53.3522388 C50.3614458,51.6223881 45.6,50.1656716 38.9156627,49.5283582 C38.5493976,49.5283582 38.3662651,49.2552239 38.3662651,48.8910448 L38.3662651,44.8850746 C38.3662651,44.5208955 38.6409639,44.2477612 39.0072289,44.2477612 L61.6240964,44.2477612 C63.7301205,44.2477612 65.4698795,42.5179104 65.4698795,40.4238806 L65.4698795,4.73432836 C65.4698795,2.54925373 63.7301205,0.819402985 61.6240964,0.819402985 L61.6240964,0.819402985 Z M60.8915663,38.1477612 C60.8915663,39.058209 60.1590361,39.7865672 59.2433735,39.7865672 L6.68433735,39.7865672 C5.7686747,39.7865672 5.03614458,39.058209 5.03614458,38.1477612 L5.03614458,7.01044776 C5.03614458,6.1 5.7686747,5.37164179 6.68433735,5.37164179 L59.3349398,5.37164179 C60.2506024,5.37164179 60.9831325,6.1 60.9831325,7.01044776 L60.9831325,38.1477612 L60.8915663,38.1477612 Z" id="path-3"></path>
        <filter x="-50%" y="-50%" width="200%" height="200%" filterUnits="objectBoundingBox" id="filter-4">
            <feOffset dx="0" dy="2" in="SourceAlpha" result="shadowOffsetOuter1"></feOffset>
            <feGaussianBlur stdDeviation="2" in="shadowOffsetOuter1" result="shadowBlurOuter1"></feGaussianBlur>
            <feColorMatrix values="0 0 0 0 0   0 0 0 0 0   0 0 0 0 0  0 0 0 0.5 0" type="matrix" in="shadowBlurOuter1"></feColorMatrix>
        </filter>
        <path d="M53.3831325,10.1059701 C52.6506024,10.1059701 51.9180723,10.4701493 51.460241,11.1074627 C50.6361446,12.0179104 50.6361446,12.7462687 50.8192771,13.3835821 C50.8192771,13.4746269 50.8192771,13.5656716 50.7277108,13.6567164 L37.7253012,26.4029851 C37.6337349,26.4029851 37.5421687,26.4940299 37.3590361,26.4029851 C37.0843373,26.3119403 36.9012048,26.3119403 36.626506,26.3119403 C36.260241,26.3119403 35.8939759,26.4029851 35.5277108,26.5850746 C35.4361446,26.6761194 35.253012,26.5850746 35.1614458,26.4940299 L28.2939759,19.938806 C28.2024096,19.8477612 28.2024096,19.7567164 28.1108434,19.6656716 C28.0192771,18.3910448 27.0120482,17.3895522 25.7301205,17.2985075 C25.2722892,17.2985075 24.8144578,17.3895522 24.4481928,17.6626866 C22.8915663,18.7552239 22.7084337,19.4835821 22.8,20.2119403 C22.8,20.3940299 22.8,20.4850746 22.7084337,20.6671642 L13.3686747,30.3179104 C13.2771084,30.4089552 13.0939759,30.5 12.9108434,30.5 C12.2698795,30.4089552 11.5373494,30.5 10.6216867,31.4104478 C10.1638554,31.8656716 9.88915663,32.5029851 9.88915663,33.0492537 C9.88915663,34.6880597 11.3542169,35.9626866 13.0939759,35.6895522 C13.826506,35.5985075 14.5590361,35.0522388 14.9253012,34.3238806 C15.3831325,33.5955224 15.3831325,32.958209 15.2,32.3208955 C15.2,32.2298507 15.2,32.0477612 15.2915663,31.9567164 L24.4481928,22.3970149 C24.539759,22.3059701 24.6313253,22.3059701 24.7228916,22.3059701 C24.9975904,22.3970149 25.2722892,22.4880597 25.6385542,22.4880597 C26.0963855,22.4880597 26.5542169,22.3970149 26.9204819,22.1238806 C27.0120482,22.0328358 27.1036145,22.1238806 27.1951807,22.1238806 L33.9710843,28.5880597 C34.0626506,28.6791045 34.0626506,28.7701493 34.0626506,28.861194 C34.0626506,29.1343284 34.1542169,29.8626866 34.3373494,30.1358209 C34.7951807,30.9552239 35.6192771,31.5014925 36.5349398,31.5925373 C37.4506024,31.6835821 38.2746988,31.1373134 38.8240964,30.5 C39.373494,29.7716418 39.4650602,29.1343284 39.373494,28.5880597 C39.373494,28.4970149 39.373494,28.3149254 39.4650602,28.3149254 L52.5590361,15.4776119 C52.6506024,15.3865672 52.7421687,15.3865672 52.8337349,15.3865672 C53.4746988,15.5686567 54.1156627,15.4776119 54.939759,14.9313433 C55.6722892,14.3850746 56.2216867,13.5656716 56.1301205,12.5641791 C55.946988,11.1985075 54.8481928,10.1059701 53.3831325,10.1059701 L53.3831325,10.1059701 Z" id="path-5"></path>
        <filter x="-50%" y="-50%" width="200%" height="200%" filterUnits="objectBoundingBox" id="filter-6">
            <feOffset dx="0" dy="2" in="SourceAlpha" result="shadowOffsetOuter1"></feOffset>
            <feGaussianBlur stdDeviation="2" in="shadowOffsetOuter1" result="shadowBlurOuter1"></feGaussianBlur>
            <feColorMatrix values="0 0 0 0 0   0 0 0 0 0   0 0 0 0 0  0 0 0 0.5 0" type="matrix" in="shadowBlurOuter1"></feColorMatrix>
        </filter>
    </defs>
    <g id="Welcome" stroke="none" stroke-width="1" fill="none" fill-rule="evenodd">
        <g id="Desktop-HD-Copy-12" transform="translate(-305.000000, -2208.000000)">
            <g id="Group" transform="translate(-34.000000, 947.000000)">
                <g id="Group-11" transform="translate(343.000000, 1263.000000)">
                    <g id="Shape">
                        <use fill="black" fill-opacity="1" filter="url(#filter-2)" xlink:href="#path-1"></use>
                        <use fill="#FFFFFF" fill-rule="evenodd" xlink:href="#path-1"></use>
                    </g>
                    <g id="Group" transform="translate(86.072289, 1.820896)">
                        <g id="Shape">
                            <use fill="black" fill-opacity="1" filter="url(#filter-4)" xlink:href="#path-3"></use>
                            <use fill="#FFFFFF" fill-rule="evenodd" xlink:href="#path-3"></use>
                        </g>
                        <g id="Shape">
                            <use fill="black" fill-opacity="1" filter="url(#filter-6)" xlink:href="#path-5"></use>
                            <use fill="#FFFFFF" fill-rule="evenodd" xlink:href="#path-5"></use>
                        </g>
                    </g>
                </g>
            </g>
        </g>
    </g>
</svg>