<svg height="173" viewBox="0 0 206 173" width="206" xmlns="http://www.w3.org/2000/svg"><g fill="none" fill-rule="evenodd" transform="translate(.5 .5)"><path d="m29.0405795 154.888349c2.0227111 0 4.2384416.84263 5.8764449 2.263653.2169805.169058.2409415.457922.047922.650941l-1.9029058 2.022711c-.1916883.167727-.4572565.167727-.6489448.023961-.9158442-.84263-1.9754546-1.156785-3.1555357-1.156785-2.6243994 0-4.7442857 2.216396-4.7442857 4.864756 0 2.625731 2.1431818 4.792873 4.7682467 4.792873.6981981 0 1.4203571-.096509 2.1431818-.384707v-1.397062h-1.5162013c-.2662337 0-.4579221-.19302-.4579221-.433961v-2.384123c0-.264237.1916884-.457923.4579221-.457923h4.8394643c.240276 0 .433961.216981.433961.457923l.0232955 6.478798c0 .119805-.0965097.312159-.1916883.384708 0 0-2.4806331 1.564789-5.9729546 1.564789-4.7915422 0-8.6452759-3.804481-8.6452759-8.621315 0-4.815503 3.8537337-8.669237 8.6452759-8.669237m27.3223069 7.417739c.9883928 0 1.8310227-.915179 1.8310227-1.926202 0-1.012354-.8426299-1.831022-1.8310227-1.831022h-3.5642046v3.757224zm-7.3447241-6.743036c0-.240942.1930195-.457922.4572565-.457922h7.2009578c2.889302 0 5.2494643 2.336201 5.2494643 5.202208 0 2.21573-1.4682792 3.9975-3.5642045 4.84013l3.2993019 6.116055c.169724.31349 0 .698863-.4086688.698863h-3.2027922c-.1930195 0-.3374513-.12047-.386039-.21698l-3.2027922-6.380958h-1.6619643v6.140016c0 .240942-.2156493.457922-.4572565.457922h-2.8660065c-.264237 0-.4572565-.21698-.4572565-.457922zm26.648802.000067c0-.240942.1930195-.457923.4579221-.457923h9.9691233c.2662338 0 .4579221.216981.4579221.457923v2.624399c0 .240941-.1916883.457922-.4579221.457922h-6.6698214v2.985812h5.4904059c.2402759 0 .4572564.21698.4572564.457922v2.624399c0 .264903-.2169805.457922-.4572564.457922h-5.4904059v3.250714h6.6698214c.2662338 0 .4579221.216981.4579221.457257v2.625065c0 .240941-.1916883.457922-.4579221.457922h-9.9691233c-.2649026 0-.4579221-.216981-.4579221-.457922zm24.6248267 0c0-.240942.193019-.457923.457922-.457923h9.969123c.266234 0 .457922.216981.457922.457923v2.624399c0 .240941-.191688.457922-.457922.457922h-6.669821v2.985812h5.490405c.240276 0 .457257.21698.457257.457922v2.624399c0 .264903-.216981.457922-.457257.457922h-5.490405v3.250714h6.669821c.266234 0 .457922.216981.457922.457257v2.625065c0 .240941-.191688.457922-.457922.457922h-9.969123c-.264903 0-.457922-.216981-.457922-.457922zm24.624892 0c0-.240942.19302-.457923.457923-.457923h2.86534c.242273 0 .457923.216981.457923.457923v12.85909h5.732012c.264903 0 .457923.216981.457923.457257v2.625065c0 .240941-.19302.457922-.457923.457922h-9.055275c-.264903 0-.457923-.216981-.457923-.457922zm22.81903 0c0-.240942.193019-.457923.457922-.457923h9.969789c.265568 0 .457256.216981.457256.457923v2.624399c0 .240941-.191688.457922-.457256.457922h-6.670487v2.985812h5.490406c.240276 0 .457256.21698.457256.457922v2.624399c0 .264903-.21698.457922-.457256.457922h-5.490406v3.250714h6.670487c.265568 0 .457256.216981.457256.457257v2.625065c0 .240941-.191688.457922-.457256.457922h-9.969789c-.264903 0-.457922-.216981-.457922-.457922zm27.733904 8.284196-5.322013-8.043588c-.19302-.31349 0-.698198.384708-.698198h3.130243c.19302 0 .31349.120471.386039.216981l3.347224 4.937305 3.347224-4.937305c.072549-.09651.169059-.216981.384708-.216981h3.131575c.384707 0 .577727.384708.384707.698198l-5.39323 8.019627v7.680844c0 .240942-.216981.457922-.457922.457922h-2.865341c-.266234 0-.457922-.21698-.457922-.457922zm-162.4812696-113.7158296c1.8030682-1.8043994 1.69125-4.5326299-.1284578-6.3530033-1.8030682-1.8024026-4.53262986-1.9142207-6.33569804-.1111526l-1.53150974 1.532841 6.46282468 6.4628246zm-12.52829545-4.4853734c-.16040585-.1590747-.17571429-.4306331-.01597403-.5903734l3.89433442-3.8943344c3.07965909-3.0796591 8.10681816-3.0956331 11.17116886-.0312824 3.0956331 3.0956331 3.0803246 8.1227922 0 11.2031168l-3.8943344 3.8943345c-.1597403.1597402-.4312987.1437662-.5897078-.0159741zm34.80161205-13.4937922c2.0952597-1.3271753 2.7249026-4.1279545 1.4097078-6.2045779-1.3285065-2.0965909-4.1412663-2.7442046-6.236526-1.4163637-2.0766234 1.3151949-2.6942857 4.1346104-1.3657792 6.2312013 1.3151948 2.0766234 4.115974 2.7049351 6.1925974 1.3897403m-6.7576786-10.6693182c3.8098052-2.4140747 8.8016883-1.2772565 11.215763 2.5332143 2.4127435 3.8104708 1.2839123 8.7704059-2.5278896 11.1844805-3.8104708 2.4140747-8.7590909 1.3018831-11.1718344-2.507922-2.4134091-3.8104708-1.3265098-8.7970293 2.483961-11.2097728m20.7599773-10.3491721c-.1876948-.2702272-.0891883-.5417857.2109902-.6436201l2.4992695-.84862011c.1717208-.05790585.3933604.0339448.4865422.16905844l4.297013 6.62056817.0851948-.0306169.7587662-8.64461036c.0212987-.15042208.1131494-.30017858.283539-.35941559l.3840422-.12978896c.1930195-.06522727.3580844-.00199675.4432792.11181818l5.8651299 6.39759743.086526-.0292857-.6216559-7.86720783c-.007987-.16506494.1124838-.37206169.2828734-.42996753l2.5006007-.84862013c.2988474-.10183442.5417857.05391233.5584253.38204545l.8353084 15.73042204c.0146429.1863637-.1124837.3720617-.2828734.4299676l-.3421103.1151461c-.1497565.05125-.3361202-.0053247-.4432793-.1111526l-6.8774837-7.4126137-.062565.0226299-.9231656 10.0596429c-.0212987.1490909-.1337824.3068344-.2835389.3580844l-.3421104.1164773c-.1703896.0579058-.3853734-.0133117-.4865422-.1690585zm34.0059724-9.54294963c-.0199676-.22430195.1650649-.42198052.390698-.44327922l.5610877-.05125 9.7461526 7.80597403.0226298-.00266234-.7281493-7.97103896c-.0206331-.22563312.1404383-.44327922.3880357-.46524351l2.6949513-.24693182c.224302-.02063311.4446104.16306818.4652435.3887013l1.3784253 15.11142855c.0206332.224302-.1657305.4219805-.3893668.4432792l-.3594156.0326137c-.0672241.0053247-.2529221-.0445942-.3015098-.086526l-9.6835876-8.10482142-.0219643.00266233.7640909 8.37504869c.0199675.224302-.1417695.4426137-.3880357.4652435l-2.6723214.2436039c-.224302.0212987-.4446104-.1624026-.4652436-.3867045zm32.1440669 2.49387825-3.208783-.33944806c-.246266-.02662337-.404675-.24826298-.38138-.47189935l.259578-2.44535714c.023961-.22430195.224302-.40667208.470568-.38071428l9.961137 1.05428571c.246932.02662338.405341.2475974.382045.47189935l-.259578 2.44535714c-.023961.22430195-.224302.40667208-.471899.38071429l-3.207451-.34011364-1.26927 11.98051946c-.023961.224302-.246266.4040098-.471899.3807143l-2.692289-.2848701c-.224302-.0232955-.403344-.2475974-.380049-.4718994zm25.445159 14.34853568c2.366818.744789 4.913344-.5810552 5.651477-2.9252435.74612-2.3668182-.573068-4.9339772-2.938555-5.68009738-2.34552-.73946428-4.898702.60834418-5.644822 2.97383118-.739464 2.3455195.587711 4.8920454 2.9319 5.6315097m3.797159-12.04707789c4.302337 1.35579545 6.653182 5.90439939 5.296055 10.20740259-1.355795 4.3023377-5.875779 6.6372078-10.178782 5.2814123-4.302338-1.3571266-6.643864-5.8558116-5.288069-10.1574837 1.357127-4.30233768 5.869124-6.68712665 10.170796-5.33133119m21.300498 9.20696269c.085195-.3174838.356753-.4166559.626981-.2529221l2.260324 1.3637825c.154416.0925162.228296.3208116.185033.4798863l-2.290942 7.5523864.077208.0459253 7.097792-4.9932143c.128458-.0812013.302841-.1078246.457257-.0146428l.3481.2103246c.174384.1044968.231624.2708929.200341.41l-1.109529 8.6080033.077873.0459253 5.612874-5.5463149c.120471-.1124838.356753-.1544156.511169-.0605682l2.26099 1.3637825c.269562.1624026.308166.449935.066558.6729058l-11.484659 10.7804708c-.13112.1311201-.356753.15375-.511169.0605682l-.308165-.1863637c-.135114-.0825324-.212322-.2609091-.201007-.4119967l1.232663-10.0343507-.057906-.0352759-8.283864 5.7812662c-.128458.0798701-.321477.0951786-.457922.0139773l-.308165-.1870293c-.154416-.0931818-.239611-.3021753-.184367-.4798863zm29.201718 19.7899545c.157078-.1597402.428636-.1470941.590373.0119805l.402013.3946916.343442 12.4863636.015974.0159741 5.61487-5.7093832c.158409-.1610714.428636-.1797078.605682-.0053246l1.930194 1.8989123c.161072.1570779.163734.4446104.00466.6056818l-10.644026 10.8237338c-.15841.1604058-.429968.1470941-.589708-.0113149l-.257581-.2535877c-.047923-.0465909-.129789-.220974-.131121-.2855357l-.073214-12.6321266-.015974-.0159741-5.899075 5.9989124c-.158409.1610714-.429967.1783766-.607013.0053246l-1.912889-1.8829383c-.161072-.1570779-.163734-.4446104-.005325-.6056818zm-93.977458 54.4398799h-.033279c-.553101 0-1.097549.2436039-1.5295133.6362987-.5564286.5051786-.8499513 1.2386526-.8612662 1.9900974l.007987 9.9897569 4.0547405-.840634-.001331-9.6103729c.033944-1.1814123-.531802-2.1651461-1.637338-2.1651461m7.098724-2.1878425h-.03461c-.576397 0-1.14414.2542532-1.594741.662922-.580389.5271429-.885893 1.2918994-.897873 2.0752922l.006656 10.6393673 4.229123-.911185-.001331-10.2087342c.035942-1.2319968-.554432-2.2576623-1.707224-2.2576623m8.001123-3.0006543h-.047256c-.79138 0-1.570779.2762176-2.189107.7214935-.796039.5730682-1.216023 1.4050487-1.231997 2.2576624v11.8906656l5.813214-1.2033767-.001997-11.2104383c.048588-1.340487-.760763-2.4560065-2.342857-2.4560065m-24.1891344 12.2904822v7.0631816l1.3491396-.212321v-7.2548704zm-3.1281137.7817289v6.7749837l1.3491397-.205666v-6.9407138zm39.6180471-9.1021331v11.1219155l2.877987-.4392857v-11.4354058zm6.395002-1.673013v11.819448l3.197467-.4878734v-12.1682142zm7.194435-1.812453v12.500341l3.717289-.5324676v-13.0201623zm13.682019 22.0657208v14.77664l6.129367.346769v-15.850227z" fill="#266190"/><path d="m45.7450844 138.14138v-3.002451l28.4936688-8.331786.2549189.016639 100.3887659 6.57065v2.903279l-100.3228731-6.567987z" fill="#2a9c47"/><path d="m74.9579838 135.423133-9.1125163 2.559172 38.0301625-.716169zm-19.017078 5.292062c-.6296428 0-1.1667694-.46125-1.2586201-1.0869-.0938474-.634301.2981818-1.238652.914513-1.411704l18.8812987-5.303377c.1384416-.038604.2828734-.053246.4253084-.045259l59.9139122 3.819123c.681559.043928 1.20737.616331 1.192062 1.298555-.015309.68289-.565747 1.231331-1.248636 1.244643l-78.7952115 1.484919z" fill="#266190"/><path d="m86.2064269 105.385442v-2.971835c-8.102159-.119139-13.1878896 5.634838-15.2558603 8.599351-2.3355358-2.134529-5.5037176-4.179205-9.7607955-5.647484-.9191721-.317484-1.8909253-.606347-2.9152597-.864594-2.0792858-.523149-4.3828734-.912516-6.9293994-1.130162v2.971168c16.2009903 1.476932 21.2494481 10.474968 22.6085714 13.977939l.2848702-.083198.2549188.016639 2.6237338.171721c-.1271267-.419318-.3281331-1.012354-.6389611-1.737841.7308117-1.74849 3.4683604-7.198295 9.7281818-9.852646v-3.168847c-6.1912662 2.227045-9.718198 6.862841-11.4227597 9.853977-.488539-.754107-1.0689286-1.545487-1.7498214-2.348182 1.4183604-2.261656 5.7459902-7.928442 13.1725811-7.786006" fill="#2a9c47"/><path d="m86.2064269 113.515222v-4.096672c-5.0251623 4.296348-6.4049188 9.015341-6.7743181 11.157857l2.9658441.193686c.2935227-1.488247 1.1814124-4.319643 3.808474-7.254871" fill="#2a9c47"/><path d="m143.769894 102.472711-16.493847 2.205081v15.438896l4.183198.255585v-10.751185l5.696072-.720828.013977 10.918246 6.6006.189692z" fill="#266190"/><path d="m51.3451786 116.082914v1.231331l.0006656 1.848994c4.8760714 1.643328 5.7513149 5.718701 5.8158766 6.066802l2.8460389-.831981c-.3500974-1.456299-2.0559902-6.591282-8.6625811-8.315146m13.5177532 6.895188 2.8633442-.837305c-1.1860715-2.763506-5.5902435-11.042045-16.3813637-13.223166v3.020423c8.6439448 1.998084 12.3758767 8.524805 13.5180195 11.040048" fill="#2a9c47"/><path d="m173.012213 105.575732-6.619903.782727.041266 19.902971-11.822776-.772743-.008652-37.3525977 18.410065-3.7552273zm-23.280146 19.623425-.00466-23.424577-4.143263.515162v22.659156l-1.554139-.107825-16.754091-1.156786-1.343815-.092516v-3.557549-43.5498535l21.954302-9.3960552 3.756558.9244968.00466 57.3187989zm-25.616348-1.70323-3.774529-.246266h.040601v-14.216883l-.06789.032613v-.032613l-21.619513 2.432711v10.369139l-2.3308766-.151753.0119805-33.2818831v-.6522727-3.8091397l27.7555361-14.4884415zm-29.0494317-45.8893832 25.8299997-14.2727922c.039935.6056818.19302 1.2865747.582387 1.8856007l-25.6562828 13.9000649zm28.9329547-10.0889285-27.6237501 14.4192207v-1.0975487l26.5614771-14.3906006c.517825.3048377.851948.6915422 1.062273 1.0689286zm-29.4035228 54.0494477-1.2825812-.097175.0039935-13.731007-4.0787013.478556.0006656 12.995535-1.1601137-.071883-.0965097-.006656-.0006656-30.0957301 6.6179059-2.0799513zm80.1862828-39.3593341v-10.3671429l-26.895601-7.4146104-3.003117 1.2859091-7.411948-1.9448376-11.550552-3.272013v-.4838799l-1.761136-1.0962175-31.6452113 17.5587825 2.085276 4.1705519v6.4528409l-8.3930195 2.6383766v2.1391883c-2.9152598-2.1325324-6.4981007-3.4044642-10.3791234-3.4044642-9.1824026 0-16.739448 7.0571915-17.5534578 16.0306003 1.025.258247 1.9960877.547111 2.9159253.864594.3887013-7.7474021 6.7949513-13.936006 14.6375325-13.936006 4.0554058 0 7.7207792 1.663961 10.3791234 4.3322889v6.6518511 2.971834.280211 3.168847.583718 4.097338 7.503133l-3.808474-.248263-2.9658442-.194351-2.3155682-.151088-2.6230682-.171055-.2549188-.017305-.2855357.083198-6.2272078 1.821039-2.8633442.837305-4.8547727 1.419692-2.8460389.83198-5.8145455 1.700569-.0019968-7.767371v-1.848993-1.231331-4.144594-3.020423-2.575811-2.971169-13.7902435l5.27875-4.1925163c.5118345-.406672.5976949-1.151461.1910228-1.6632954-.4073377-.5131656-1.1521266-.5976948-1.6632955-.1910227l-3.8064773 3.0230844v-7.9284416c0-.6536039-.5304707-1.1834091-1.1840746-1.1834091s-1.1834091.5298052-1.1834091 1.1834091v3.7612175l-2.0992533-1.8776136c-.4878733-.4366234-1.2353246-.394026-1.6712824.0925162-.4359578.4878734-.394026 1.2359903.0931818 1.6719481l3.6234415 3.2407305c.0159741.0146429.0372728.0186364.0539124.0326136v31.7643508.000665l.0026623 10.307906-.8100162.236948v-9.788084l-8.04625-12.448425c-.3547565-.549108-1.0868994-.706185-1.6366721-.351429-.5491071.354757-.7061851 1.087565-.3514286 1.636007l.6083442.941136h-1.3364935c-.6536039 0-1.1834091.529805-1.1834091 1.184075 0 .653603.5298052 1.183409 1.1834091 1.183409h2.8666721l5.5283441 8.553425-.0545779 9.797403-.0033279.001331v3.013766l28.8144805-8.422971 100.2283605 6.568653v-1.459627-1.460958-44.6008113z" fill="#266190"/><path d="m87.4056104 43.235099c2.0273701 0 3.4996428-1.5401623 3.4996428-3.5109578 0-1.9528246-1.4722727-3.492987-3.4996428-3.492987h-1.7231981v7.0039448zm-4.5233117-9.217013c0-.1723863.1437662-.3287987.323474-.3287987h4.3795455c3.4630357 0 6.2984253 2.7149189 6.2984253 6.0348539 0 3.3545455-2.8353896 6.0694643-6.2984253 6.0694643h-4.3795455c-.1797078 0-.323474-.1550811-.323474-.3281331zm19.5129383 9.217013c2.02737 0 3.499643-1.5401623 3.499643-3.5109578 0-1.9528246-1.472273-3.492987-3.499643-3.492987h-1.723198v7.0039448zm-4.5233117-9.217013c0-.1723863.1437663-.3287987.3234741-.3287987h4.3795456c3.463036 0 6.298425 2.7149189 6.298425 6.0348539 0 3.3545455-2.835389 6.0694643-6.298425 6.0694643h-4.3795456c-.1797078 0-.3234741-.1550811-.3234741-.3281331zm20.6269267 7.6258004-1.364448-2.8533604h-.017971l-1.345811 2.8533604zm-7.376006 3.7006493 5.616867-11.6370779c.053246-.1038312.179707-.1910227.305503-.1910227h.179042c.125796 0 .250925.0871915.305503.1910227l5.616867 11.6370779c.108491.224302-.035276.4492695-.304837.4492695h-1.992095c-.323474 0-.46724-.1038312-.628311-.4326299l-.646283-1.3657792h-4.882061l-.646283 1.38375c-.089188.2069968-.286201.4146591-.645617.4146591h-1.974123c-.268896 0-.412662-.2249675-.304172-.4492695zm22.168686-3.1478815h-5.839837c-.36474 0-.660926-.2955195-.660926-.6609253v-1.9009091c0-.3647403.296186-.6602597.660926-.6602597h5.839837c.364741 0 .660926.2955194.660926.6602597v1.9009091c0 .3654058-.296185.6609253-.660926.6609253m-55.6279476 0h-5.8398376c-.3647403 0-.6609254-.2955195-.6609254-.6609253v-1.9009091c0-.3647403.2961851-.6602597.6609254-.6602597h5.8398376c.3647403 0 .6609253.2955194.6609253.6602597v1.9009091c0 .3654058-.296185.6609253-.6609253.6609253m-13.0324756 37.939776c0-8.2259578-6.6924513-14.9184091-14.9184091-14.9184091-8.2252922 0-14.9177435 6.6924513-14.9177435 14.9184091 0 7.2355682 5.1789123 13.2790747 12.0237824 14.6308766v-2.4300487c-5.5276785-1.3125325-9.6562987-6.2777922-9.6562987-12.2008279 0-6.9207468 5.629513-12.5509253 12.5502598-12.5509253 6.9207467 0 12.5509253 5.6301785 12.5509253 12.5509253 0 5.5975649-3.6926623 10.3292045-8.76375 11.94125v2.4639935c6.3936039-1.683263 11.1312338-7.4911526 11.1312338-14.4052435m-16.6039351 26.1289138c0-4.906023-3.9908442-8.8975323-8.8968669-8.8975323s-8.8975324 3.9915093-8.8975324 8.8975323 3.9915097 8.896867 8.8975324 8.896867c.5491072 0 1.0795779-.070552 1.6007305-.169058l-1.4476461-2.209075c-.05125.001331-.1011688.010649-.1530844.010649-3.6008117 0-6.5300487-2.928571-6.5300487-6.529383s2.929237-6.5300485 6.5300487-6.5300485c3.6001461 0 6.5293831 2.9292365 6.5293831 6.5300485 0 1.044302-.2489285 2.030033-.6875487 2.905942l1.4389935 2.195097c1.0163474-1.445649 1.616039-3.203458 1.616039-5.101039" fill="#2a9c47"/></g></svg>